<?xml version='1.0' encoding='utf-8'?>
<svg xmlns="http://www.w3.org/2000/svg" width="13in" height="18in" version="1.1" style="shape-rendering:geometricPrecision; text-rendering:geometricPrecision; image-rendering:optimizeQuality; fill-rule:evenodd; clip-rule:evenodd" viewBox="0 0 13000 18000"> <defs> <style type="text/css">  .fil4 {fill:none} .fil5 {fill:#030004} .fil3 {fill:#C7334D} .fil2 {fill:#06AF4E} .fil0 {fill:#968F83} .fil1 {fill:#C0B9AC}  </style> </defs> <g id="Layer_x0020_1"> <metadata id="CorelCorpID_0Corel-Layer"/> <path class="fil0" d="M11732 8383c24,-26 -1,-22 64,-20l21 38c-43,-32 -9,-9 -46,-10 -31,0 -8,8 -39,-8zm326 -69c3,-11 29,-22 17,1 -7,14 -18,1 -17,-1zm-48 -47c30,-1 8,-26 37,17l-37 -17zm-163 -35c46,25 18,18 65,4 -22,41 -6,-4 -18,50 39,19 30,1 45,40l64 -4c-19,-56 2,-20 -38,-65 33,21 4,-2 34,27 14,13 23,24 34,34 -31,18 -34,28 -39,58 0,2 0,7 0,9l-1 16c-2,23 -6,-8 -1,28l-82 -67c-12,-33 -16,-25 -33,-38 27,-17 41,1 18,-40 -15,-25 -28,-7 -47,-53zm-172 -1c7,47 6,12 -13,25 -10,-35 -16,-11 13,-25zm335 -29c38,19 31,-2 16,29 -19,-13 -6,9 -16,-29zm-163 30c-33,-10 -16,16 -24,-20 42,5 4,-3 24,20zm-172 -1c2,-28 -7,-25 18,-20l33 50c-39,-48 -2,-17 -52,-30zm293 -71c20,20 26,24 42,42 -43,-21 -24,-8 -42,-42zm-122 0l10 -28c12,37 18,16 -10,28zm0 0l-11 18c-24,-23 -21,-18 -28,-38 30,39 0,11 39,20zm-142 -27c20,18 34,33 53,48l-23 45c-13,-30 -4,-13 -10,-39 -13,-49 3,-8 -20,-55zm-122 -16c28,16 27,10 34,36 -29,-20 -27,8 -55,-6 34,-19 1,2 21,-30zm125 3l8 -27c4,31 0,1 24,15 -14,11 -4,7 -32,12zm262 40c-40,-27 -9,-15 -53,-25l-9 23 -15 -28 -31 -12 29 -11 40 -40 13 38c0,1 -2,5 -2,6l41 9c-28,31 -10,-2 -14,41zm-262 -40l-3 13 3 -13zm-138 -42c6,34 -9,1 13,39 -31,-19 -26,-5 -41,-49 12,17 7,3 28,9zm0 0l6 -21 31 24 -38 -3zm111 -42c26,-40 37,-47 76,-68 8,70 7,12 63,86 -69,-29 -45,-6 -57,4l-38 -40 -45 18zm153 -93c11,-35 2,-20 25,-43l-25 43zm-1224 -1341c-7,-35 -18,-28 24,-34l-24 34zm211 -215l31 31 -31 -31zm-169 -295c5,60 5,1 -14,28 -38,-20 -50,-32 0,-55 17,25 9,-27 14,27zm-236 -14c0,0 -10,-30 37,-11 31,12 8,5 16,31 -49,23 -34,16 -54,-19zm-146 21c-125,13 15,-126 0,0zm493 1004l130 177c24,31 21,41 64,45 49,-103 -28,-427 0,-481 17,44 -4,36 13,82 33,91 -43,-69 19,27 6,9 11,-24 18,39 4,33 -7,68 -13,97 -5,26 -4,28 -7,60 -6,63 -3,132 8,181 52,219 251,338 345,533 19,40 18,36 17,76 73,-22 -24,55 72,95 -15,35 -10,50 -6,75 4,26 9,57 5,91 25,10 31,12 49,35 35,46 10,27 26,58 25,48 148,84 204,128 40,32 59,30 98,43 82,29 147,15 217,-2 22,-5 50,5 93,-10 3,-1 7,-3 9,-4 123,-52 84,-22 138,-119l0 -27c-36,-20 -27,-9 -42,-14l1 -60c-71,-12 -50,-31 -105,-90 -66,-71 -149,-120 -136,-232 37,-331 178,-285 -42,-742 -45,-93 -34,-223 -70,-319 -31,-82 -121,-136 -214,-161 -165,-43 -391,-149 -416,-148 -46,1 -120,-3 -157,3 -100,95 -63,153 -67,307l-41 -66c-21,-115 41,-257 102,-286 71,-6 126,18 156,0 -16,-50 25,-12 -111,-70 28,-65 34,-308 2,-368l-46 -7 -18 89c-37,-18 -55,16 -80,-27 -17,-29 -3,-29 -9,-47 -12,-37 3,-16 -28,-31 -36,17 -16,0 -31,41 -8,22 -7,28 -18,53 -117,7 -103,-47 -116,-93 -28,-2 -118,-4 -138,-9 -47,-12 -36,-16 -49,-42l-24 -47c-34,15 -7,-2 -30,28 -13,17 4,8 -26,36l-59 -6 -13 -66c-31,-3 -37,-4 -52,-8l-34 71 -78 -5c-53,-67 -8,-27 -76,-66l-13 69 -89 12 -6 81c-41,9 -65,22 -92,54l-78 40c-3,72 7,91 60,115l115 65c55,22 89,21 151,30 114,18 236,131 295,220 56,83 89,98 127,138 20,22 2,-4 18,26l6 19c1,-2 2,6 4,14l69 -30 -21 -85c46,-24 47,-44 113,-67 -22,-63 13,-28 -37,-49 19,-26 24,33 15,-31 30,20 11,18 49,21 22,-41 31,-62 78,-85 -24,85 -5,7 -46,75 -43,73 11,48 -86,134 -34,30 -100,170 -99,241 2,78 22,115 31,179z"/> <path class="fil0" d="M3512 9368c5,-74 8,-112 32,-190 33,-108 44,-159 119,-138 -149,165 -91,102 -113,338l-38 -10zm306 -428c-4,44 -16,57 -42,82 -14,14 -28,23 -38,33 -34,32 -77,155 -88,206 -4,-10 -11,-5 -9,-31l7 -19c10,-26 4,1 21,-48 21,-62 103,-189 149,-224zm0 0c10,-37 47,-95 73,-122 34,-36 65,-62 101,-85l-175 207zm175 -207c21,-30 28,-32 60,-45 -25,37 -23,31 -60,45zm-292 269c-45,-108 75,-273 212,-307 -115,79 -179,174 -212,307zm352 -314l28 -22 5 -2 -33 24zm27 -110c-41,23 -34,33 -67,57 -41,29 -35,6 -76,38 4,-4 47,-50 56,-57 36,-27 44,-13 87,-37zm0 0l27 -19 -27 19zm165 -71l-95 95c10,-45 7,-43 39,-68 23,-19 28,-19 56,-27zm0 0l-12 -24c-46,19 -30,31 -90,44 13,-45 -32,3 24,-43 33,-27 94,-28 164,-73l17 -11c3,-2 6,-4 9,-5 5,-3 38,-19 46,-22 36,-14 34,-3 91,-3l-129 63c-96,37 -27,25 -89,64 -32,20 24,-3 -31,11zm420 -275c-4,13 6,14 -23,43 -28,28 -105,84 -148,94l139 -105 -9 -34 -43 -5c-103,120 -23,-7 -90,81 10,-57 34,-33 73,-79 22,-27 29,-55 50,-88 53,-84 48,-112 5,-201l17 -41c10,-23 2,-4 13,-28 -2,-1 -35,-14 -45,-18 -20,21 -46,38 -66,53l-27 -8 -140 126c-37,12 -174,-12 -285,102 -122,126 -80,105 -108,145 -42,61 -151,158 -218,182l-88 78c-160,107 -87,101 -152,169 -97,102 -48,28 -116,174 -78,169 27,254 -33,373l-17 10c-11,47 -5,9 -13,62l8 16c5,1 33,1 46,3 45,8 54,21 113,29 27,46 62,75 92,106 19,-27 10,-36 18,-85 26,52 16,109 5,145 0,2 -1,6 -2,8 0,0 -3,34 -4,39 70,-7 113,-8 129,63 26,111 -31,124 -51,172 65,-14 136,-25 201,-45 29,-9 68,-29 90,-35l273 -61c76,-18 118,-13 144,-96l20 53 236 -69c-6,-55 6,-16 -21,-55l62 -112 13 -143c101,-294 70,-486 239,-797 34,-63 70,-90 102,-148l143 -233c42,-58 7,-18 57,-23l16 -30c-41,-4 -9,18 -27,-12 20,-58 22,-50 30,-125 7,-62 20,-57 -30,-82 -64,29 -35,53 -80,114l-50 73c-202,52 -76,149 -427,258l-26 -15z"/> <path class="fil1" d="M6567 5290c-47,-17 -36,23 -35,-70 1,-104 7,-83 21,-103 41,28 28,13 23,83 -3,45 11,48 -9,91zm822 -111c-14,-35 -2,30 1,-51 30,45 3,53 -1,51zm-561 -488c24,11 56,-2 34,127 -8,47 -4,23 -17,46 -36,-26 -25,-5 -25,-74 0,-43 0,-70 9,-99zm-83 1c41,17 37,6 38,69 1,38 4,66 -8,96 -50,-19 -35,-27 -30,-166zm537 4l81 1c-38,23 -19,8 -42,33l-38 -34zm-135 -143c-40,22 -75,12 -111,1l11 -49c43,-19 54,-7 104,-17l-4 64zm-314 1167c-1,-92 -13,-179 19,-216 20,19 12,4 20,36 24,89 -18,-61 3,25 9,38 4,18 11,29 91,-75 112,-334 139,-361 38,-39 157,-12 194,-12 -6,-89 -19,-116 4,-195 53,22 35,-6 74,20 17,60 -4,129 -2,183 83,13 124,-8 155,-57 -12,-41 -13,2 -12,-35 0,0 22,-95 10,-145 -26,-112 6,-35 -7,-116 -6,-39 -15,-17 -41,-123l42 -29 -24 -40c57,-11 12,-9 66,5 37,-39 57,-32 96,-79 -12,-64 -47,-90 -92,-106 9,111 -88,70 -89,70 -49,-47 -14,-27 -32,-70 -218,-23 -502,-24 -724,-3 3,2 8,1 10,6 5,12 47,-2 63,40 20,55 0,18 -3,31l-64 11 -42 -52c-72,74 -64,165 -73,223 -6,42 2,25 15,76l-118 112c-12,15 -6,7 -15,23 37,100 1,755 3,944 1,92 14,103 10,180l-10 301c3,48 12,36 59,30 4,-41 1,-77 9,-118 5,-25 27,-72 29,-89 4,-41 -27,-94 10,-149 34,-53 6,-16 39,-32l41 28c-45,48 -27,-19 -66,83l85 -1c-5,94 19,90 24,185 5,106 36,99 41,175 3,50 -29,87 -2,159 40,109 25,63 17,180 88,56 -15,42 122,93l-66 12 43 49 72 -7c10,-51 15,-27 -18,-62l44 -39c-3,-52 0,-108 -5,-155 -5,-42 -7,-19 -3,-60 3,-30 5,-49 5,-80 -45,-70 -98,-75 -92,-177 7,-115 -13,-138 22,-174l-2 213 123 -3c0,-95 -3,-23 -46,-80 24,-62 6,-13 44,-51l-1 -143c-66,-8 -40,-9 -95,4 54,81 7,61 7,61l-9 -57c-71,11 -23,12 -60,-9 9,-81 108,-85 84,-265 -14,-108 -71,-6 -112,-110 14,-26 7,-15 28,-42l44 -41z"/> <path class="fil1" d="M9742 5963l-29 -22c6,-9 13,-25 26,-32 -5,17 -27,32 4,54zm-230 -287c10,11 10,-1 19,23 8,21 6,25 6,47l-14 94c-59,8 -46,-6 -41,-53 7,-72 -11,-75 30,-111zm-278 -59c-43,-48 -38,-167 10,-200 23,34 26,98 18,145 -14,79 -13,37 -28,55zm637 -313l-6 27c-10,-15 -15,-12 6,-27zm-906 -20c5,15 7,13 29,32l-31 9 1 -41zm-64 31c9,-26 6,-21 22,-35 -6,39 -22,35 -22,35zm971 -11c-7,-41 22,-11 -18,-39l46 20 -27 19zm-97 -71l26 10 -4 13 -22 -23zm-848 -112l94 -13 -1 77c-10,4 21,13 -33,11 -51,-2 0,9 -46,-16l-13 -60zm848 112c-58,-76 -133,4 -110,-110 53,-7 86,-2 126,21l-12 59c0,2 -1,7 -1,9l-3 21zm-467 -121c84,-12 126,-24 114,57 -68,8 -123,18 -114,-57zm-228 832c0,0 48,-8 29,48 -12,34 -91,31 -65,196l67 8c-19,-48 -20,-52 -14,-104 45,-34 90,-33 144,-4 43,23 37,58 51,101 161,6 92,27 179,94 177,-75 211,-61 389,-25 23,-34 24,-90 27,-152 -32,-27 -37,-48 -102,-49l-23 -89c0,-31 5,-77 15,-96 62,3 20,4 65,23 -21,-68 -4,-156 -3,-226 -76,26 -34,22 -55,8 39,-44 29,0 61,-69 -41,-86 -89,-28 87,-222 -11,-65 -11,-40 -8,-99 18,-283 -197,-247 -564,-255 -71,-2 -62,-10 -93,38 -73,-38 -6,-51 -223,-29 -126,13 -209,45 -196,191 4,53 8,5 5,40 -4,44 -12,-3 -16,140 -2,80 -20,120 40,140 37,13 20,-17 95,55 1,129 93,232 109,335z"/> <path class="fil1" d="M7053 6755c-17,-28 -21,-67 -13,-107 5,-23 6,-18 13,-29 32,20 31,2 30,70 -1,88 -30,64 -30,65zm215 -392c6,-7 29,3 14,7 0,0 -17,-4 -14,-7zm398 108c-36,-22 -42,-31 -71,-59l9 -20c29,-63 25,-55 79,-72 2,42 7,14 -6,35l-12 13c-2,2 -10,10 -13,14 12,64 26,32 15,89zm-591 -53c-33,-84 -24,-111 10,-135 25,12 22,96 20,104 -9,53 -18,30 -30,31zm451 -354l17 98c-6,25 -10,22 -17,32 -3,-5 -18,-12 -21,-67 -2,-29 6,-39 21,-63zm-271 -7c-42,24 -9,23 -48,7 10,-5 5,-8 27,-10 3,0 17,2 22,3zm396 -171c37,34 38,108 0,136 -21,-36 -23,-100 0,-136zm-514 39c13,22 29,62 18,91 -18,44 2,-1 -18,19 -41,-34 -33,-81 0,-110zm292 -83c21,13 23,-11 27,55 2,30 0,50 -5,79 -53,-24 -44,-87 -22,-133zm98 875c37,-13 22,-11 69,-15 34,48 40,69 39,126 26,-18 14,-5 36,-36 70,-97 63,-46 64,-131 -19,-12 -6,-4 -24,-10 -8,-3 -5,24 -12,-2 0,0 -49,-82 -31,-178l110 220c20,-11 36,-24 51,-34 -13,-63 -7,-46 1,-109l-91 -93 9 -85c-32,-30 -19,-23 -62,-40 23,-39 27,-20 33,-74l-11 -471c-94,-24 -286,-78 -341,30 -16,32 -32,614 12,717l-71 -22c42,-132 -17,-252 7,-291 -32,10 -8,12 -44,6 29,-21 15,-17 49,-28 -24,-80 18,-134 -7,-266 -1,-3 -2,-7 -2,-10 -9,-47 20,-34 -34,-54 -50,-19 -286,-27 -372,-5 -10,64 -14,110 7,153l67 129c4,12 -8,139 -8,173 -1,67 8,132 14,180 -55,71 -56,65 -55,180 1,87 -5,146 11,222 50,-25 64,-54 122,-77 62,-25 71,-15 127,-53 5,-47 -3,-50 -1,-79 2,-33 61,-127 103,-163 40,63 -20,36 52,99 -2,2 -5,4 -6,5 -29,44 -8,71 10,91l22 -23c54,-62 22,19 41,-54 8,-30 -17,-53 -28,-93 3,-1 8,-3 10,-4l18 -4c26,-6 -15,19 23,-5 20,-13 16,-18 25,-42 26,22 31,24 76,22 -38,-52 27,-79 43,-82 -8,9 -2,-23 -13,27l14 103c-16,12 11,28 -36,-1 11,42 11,12 1,46 -38,124 6,-7 -15,107z"/> <path class="fil1" d="M5858 6525c7,3 41,-8 28,65 -5,27 -7,18 -14,30 -43,-27 -33,-57 -14,-95zm323 -135c-57,11 -37,-31 -37,-81 0,-34 -1,-88 18,-133 63,22 36,20 35,96 0,41 13,78 -16,118zm-253 -327c-54,-19 -41,-15 -42,-82 0,-37 0,-75 1,-112 75,-6 68,13 66,83 -1,68 12,71 -26,111zm297 -270c22,-12 20,-8 29,-28 -6,24 2,20 -29,28zm163 732c1,-3 3,-7 3,-8l2 -147c3,-60 5,-150 4,-206 -9,-312 -40,-189 -60,-260 27,28 12,17 57,30 -14,-85 15,-175 -7,-257 -52,-28 -498,-48 -569,1 -56,38 -29,108 -30,180 -3,278 16,501 2,794 5,5 39,38 39,39 18,24 3,4 15,27 2,3 1,42 9,19 1,-2 3,6 5,9 144,-5 145,-98 215,-161 70,-63 156,-77 257,-79 25,20 27,30 57,20z"/> <path class="fil1" d="M8626 6431c5,-153 90,-54 39,52 -56,-10 -41,17 -39,-52zm234 -334c17,7 25,-13 32,38 7,47 -9,43 -18,56 -35,-23 -35,-33 -14,-93zm-106 46c10,-92 -3,-21 23,-48 48,74 0,99 0,99 -10,-8 -30,11 -23,-51zm-297 45c-17,-13 -40,1 -22,-82 6,-28 -16,-14 12,-23 53,-18 35,78 9,105zm526 113c8,-73 22,-73 25,-142 2,-63 4,-112 -13,-150l-632 -8c-43,44 -39,32 -37,90 3,108 -14,219 -6,320 93,44 74,38 143,94 46,37 199,84 273,87 121,5 64,69 276,3 -31,-80 -23,-21 -5,-120 15,-83 13,-126 -23,-173z"/> <path class="fil0" d="M12263 8190l0 -926c-2,-3 -6,-7 -7,-9l-139 -225c-21,-38 -131,-202 -182,-117 -35,215 76,258 134,400l-17 1c-30,9 -2,-4 -26,16 39,54 11,73 64,126l-13 -110c8,110 30,139 8,272 -26,158 -226,376 179,570z"/> <path class="fil2" d="M4853 6730c7,1 13,1 19,1 21,-31 32,-50 43,-86 -14,12 -30,22 -47,30 -2,5 -5,11 -8,16 -2,12 -6,23 -10,34 1,2 2,4 3,6z"/> <path class="fil1" d="M1413 10173c57,-3 108,7 156,-11 43,-16 3,-1 28,-17 -2,-30 -14,-62 -10,-81 5,-30 33,-34 16,-36 3,-73 -8,-107 23,-170 25,-49 70,-74 121,-88 63,20 16,24 100,26l26 59 69 -14c17,-37 5,-75 -8,-112 -13,-38 -203,-66 -262,-77 -168,-33 -124,-37 -192,-58 -32,-10 -35,-3 -66,-17l0 595z"/> <path class="fil2" d="M2921 9341c0,-14 8,-18 11,3 5,35 -11,10 -11,-3zm-78 -57l24 -22c-5,28 6,13 -24,22zm27 -120l-30 17 30 -17zm-28 -101c27,13 28,3 11,24l-11 -24zm1 221l-27 24c18,36 -1,7 17,30 3,4 59,38 71,84 1,4 2,25 2,29 6,51 13,12 1,43 -52,64 -78,-20 -142,-43 16,42 18,25 8,60 -54,-9 -26,-5 -72,-29l-42 51c11,26 13,-22 12,24 -1,15 -6,20 -7,22l-9 13c43,27 48,59 93,81 -12,-30 -9,-19 -20,-51 66,-29 -15,-28 45,-12l15 9c22,21 3,-3 11,28l33 -34c56,9 59,8 89,53 -7,-95 49,-23 25,-109 32,-23 24,-17 54,-35 -19,-51 -25,4 -38,-37 -2,-5 -8,-4 -11,-7 2,-2 6,-5 7,-6 55,-65 -33,-52 64,-123 80,23 34,75 103,41 0,-3 2,-7 2,-8 -8,-33 12,-11 -55,-46 -86,-45 -19,13 -113,-36l-15 -8c-8,-3 -30,-10 -45,-17 28,-38 2,9 24,-34 23,-45 2,7 4,-25 1,-12 3,-60 2,-75l-45 -115c-44,27 -23,2 -43,39l-38 -39c24,-4 15,9 12,-30l-62 9c25,38 36,49 59,88 -28,1 -19,22 -104,0l16 50c-31,-19 -21,-13 -52,-25 1,2 13,28 13,32 2,23 -14,28 -24,79l31 28c-1,0 -3,-25 -15,7 -20,55 0,14 7,30l41 5c36,-13 12,-6 25,-28 4,2 24,13 27,13 33,5 13,-10 38,-7 79,10 -42,1 27,10z"/> <path class="fil1" d="M8351 4996l-3 177 344 5c42,4 52,12 113,12 22,-99 -9,-74 -47,-125 11,-68 10,-22 30,-81 -81,2 -155,1 -236,-5 -83,-7 -156,-14 -202,17z"/> <path class="fil1" d="M6461 4643c21,17 17,2 21,35 4,33 -3,37 -9,54 -67,-51 -12,-88 -12,-89zm-108 -155c-11,-30 -13,-6 -11,-47 2,-70 4,-22 18,-40 17,28 40,78 -7,87zm-42 -136c-27,65 -10,315 -10,407 53,12 140,29 203,8 5,-59 -13,-194 -10,-209 11,-51 19,-144 3,-202 -36,-14 -137,-24 -187,-4z"/> <path class="fil1" d="M10012 5771c11,16 20,-24 18,44 -1,48 -12,35 -18,45 -1,-1 -24,6 -24,-39 1,-71 14,-38 24,-49zm-109 -149l-34 11c16,117 8,64 -1,170 -4,40 -24,186 12,196l181 11 10 -459c-60,-10 -81,-22 -142,-6 28,52 39,44 23,99 -38,6 -40,-13 -49,-21z"/> <path class="fil1" d="M5799 5530c-2,-3 -6,-11 -7,-9l-18 -97c-94,6 -58,107 -53,200 90,-3 164,-35 349,-22l221 0c69,11 89,29 103,-32 15,-64 -34,-12 -37,-143l-48 -7c1,4 4,20 4,23 0,12 -1,22 -1,35l-2 26c-1,26 -4,14 1,30 -91,-27 -131,50 -141,-100l-57 -21c-7,50 -1,63 6,97 -253,62 -102,-26 -190,-108 -27,28 -8,-29 -25,44 -14,62 13,113 -105,85z"/> <path class="fil0" d="M12263 8660l0 -182c-62,4 -205,53 -227,54 -18,1 -45,-2 -61,-1l-361 10c14,30 0,7 24,15 2,1 6,1 7,2 112,43 342,114 452,109 33,-1 31,-1 71,-1 44,1 40,-6 95,-6z"/> <path class="fil1" d="M8238 5470c-84,36 2,32 -59,81 -18,-33 -18,-34 -15,-78 -30,14 -42,2 -41,48 0,17 10,24 15,57 0,3 -13,262 -1,391l148 -4c-25,-55 21,-188 -16,-211l-26 -16c0,0 -52,-37 -2,-101l21 64c40,-23 22,-9 11,-202l-35 -28z"/> <path class="fil1" d="M8353 5232l-8 95c58,24 225,7 334,28 39,7 73,18 125,17 4,-117 71,-169 -333,-167l-88 10c-23,9 -16,5 -29,17z"/> <path class="fil2" d="M2362 9649c10,-8 38,6 17,14 -16,6 -22,-10 -17,-14zm-23 -293c11,74 13,29 2,54l42 1 4 66c12,-4 30,-13 32,-13l58 -2c2,-5 8,-2 13,-3 5,31 -14,13 17,18 -36,68 -16,13 -5,76 -14,2 -14,4 -20,7l-24 13c7,46 -20,15 18,40 -29,-8 -43,-3 -51,-4 -19,-3 -29,-3 -35,-32l-29 -27c-28,-31 -5,-9 -17,-42l-26 15c24,127 -5,83 -33,150l-33 -26 -8 97 -1 24 48 -14c25,53 5,96 2,121l79 -88c28,-41 42,-54 91,-77 6,-36 1,-42 16,-68 20,-36 -1,2 20,-23 118,-145 -9,-216 -44,-263l-34 20c-2,-3 -7,4 -11,6 -12,-26 -22,-34 -39,-52 -3,4 -13,12 -15,13l-17 13z"/> <path class="fil0" d="M12263 7201l0 -370c-112,-48 -173,-54 -314,-49 16,51 -9,22 48,62 145,102 123,204 265,357z"/> <path class="fil1" d="M8321 5533l324 9c68,7 154,34 154,-71 -94,-39 -192,-43 -279,-58 -104,-18 -141,-2 -191,81 -19,32 -9,-3 -8,39z"/> <path class="fil2" d="M6512 6789c19,10 17,7 43,19 36,-96 30,-59 26,-159 2,-1 5,0 6,-1 32,-5 49,-19 68,-49 59,-89 9,-116 9,-116l-27 65 -62 -20c-1,-3 -2,-7 -2,-9 -20,-103 -7,-127 65,-204 -11,-27 -18,-54 -34,-79 -54,74 -15,19 -97,93 7,47 17,44 18,83 1,42 -7,24 -4,77 -4,-3 -10,-7 -13,-9 -43,-24 -25,-22 -37,-13 -62,46 54,51 54,250 -43,-7 -22,-2 -33,10l21 61z"/> <path class="fil1" d="M1413 9544c80,26 137,32 216,52 84,21 134,47 209,-3l4 -127c-151,23 -258,16 -429,-8l0 85z"/> <path class="fil1" d="M9148 4568c3,3 19,-1 26,31 9,46 -7,36 -9,42 0,0 -58,6 -16,-72zm-72 -99c29,18 11,-25 31,31 20,57 4,9 -4,43 -11,-11 -27,9 -27,-75zm-37 347c50,-9 61,-30 90,-62l77 -72 2 -241 -149 -10c-15,32 -25,341 -20,385z"/> <path class="fil3" d="M9168 4807c115,23 316,-18 436,17 -94,86 -370,-38 -465,44l401 3c29,8 15,6 31,17 -131,38 -437,-5 -544,28 -26,8 -34,13 -49,16 228,2 370,-22 628,-12l-51 34c-1,1 -3,5 -4,6 -1,2 -4,7 -5,9 -1,2 -4,7 -6,11 -83,-7 -217,-29 -273,-5 58,1 118,3 176,1 248,-8 97,-5 167,-29l65 0c-1,1 -2,2 -2,3l11 -7c28,-20 104,5 123,16 -34,-50 -174,-21 -233,-79l40 -10c33,-36 -12,-16 37,-31 4,-1 41,0 48,0 -56,-19 -1,-26 -103,-30 -60,-2 -95,-12 -153,-12 -59,0 -93,-14 -138,-11 -46,3 -55,21 -137,24z"/> <path class="fil2" d="M3188 9840c14,10 20,10 34,24 -49,-9 -16,14 -34,-24zm140 -21c-9,21 -2,7 -19,27 -17,20 -9,14 -10,10 0,-1 -3,3 -4,5l33 -42zm-140 21l-22 -18c32,1 12,-13 22,18zm76 -110c8,-18 4,-17 10,-42 9,-37 -4,2 11,-39 -20,4 -32,-6 -53,49 -42,108 -119,111 -97,164 43,102 136,56 222,35 46,-11 33,10 55,-28 -75,-41 -62,-4 -64,0 19,-69 21,-41 37,-81 -85,-41 -38,35 -121,-58z"/> <path class="fil1" d="M6809 4415c-45,-32 -21,-7 -44,-56 -5,1 -22,5 -25,6l-21 3c-74,10 5,-8 -49,22 -51,28 -79,1 -130,37 60,25 24,7 70,6 27,-1 35,8 79,6l557 -15c-10,-6 -25,-12 -35,-18 -29,-19 -19,-20 -35,-31l-55 -15c-49,71 -106,23 -141,-12l-68 3c-31,42 -18,63 -105,65z"/> <path class="fil2" d="M2484 9866c61,-40 13,-35 95,-67 14,20 44,37 56,57 21,35 -12,3 17,83 68,-21 -10,-24 79,0 16,-41 20,-51 67,-72 -15,-61 -24,2 -34,-77l-1 -97c1,-3 8,-17 10,-21l-26 -1c-16,52 -12,23 -1,71 -19,-10 -22,-11 -39,-22 24,102 -16,59 33,99 -45,26 -1,19 -51,63 -34,-56 31,-85 -25,-101 -28,-8 -5,36 -81,-51 -130,5 -64,-1 -138,27l39 9c5,10 7,7 10,28 6,31 -6,50 -13,72z"/> <path class="fil2" d="M1924 9577c19,-28 14,-21 26,-14l-26 14zm49 -122l22 8c-21,12 -10,15 -22,-8zm0 0c-27,10 -46,20 -58,50 -15,39 15,5 -13,62l21 11c16,32 14,25 37,48 70,-42 20,0 65,-60 28,-38 56,-84 95,-98 31,-11 9,17 60,-12 23,-13 9,-9 34,-14 11,18 10,11 11,26 0,2 -5,22 -11,36 77,-5 8,6 103,22l-159 -149c17,39 -5,12 29,50 -101,-40 6,16 -109,11l-38 5c-39,-52 -2,-15 -39,-37l21 -21 -68 28c15,22 8,14 19,44z"/> <path class="fil2" d="M2135 9951c-3,-1 -8,-3 -9,-4l-30 -8c15,33 20,27 29,52 6,17 8,50 9,68 -57,-46 -49,-66 -86,-122l-33 19c25,41 44,59 20,101 -10,18 -76,77 -86,87 80,-7 77,-21 134,-34l8 -45 68 0c53,55 59,39 196,36 -17,-49 -44,-41 -48,-57 -1,-4 -4,-5 -6,-7 -83,39 -170,-36 -167,-87z"/> <path class="fil1" d="M8349 4937c283,29 331,-1 565,-10 -36,-50 57,-12 -144,-25 -112,-7 -95,11 -292,-12 -71,-9 -109,-31 -130,48z"/> <path class="fil0" d="M3761 8453l19 -22c2,-2 5,-5 7,-6l63 -59c40,-36 111,-109 112,-157 -124,45 -273,196 -322,295 44,1 71,-34 119,-50z"/> <path class="fil0" d="M9446 7550c7,28 -24,16 88,77 98,53 297,125 405,117 -56,-61 -44,-29 -127,-50 -56,-14 -71,-41 -118,-61 -43,-18 -94,-25 -135,-46 -43,-22 -69,-53 -113,-37z"/> <path class="fil2" d="M3011 8895l-46 -26 22 -47c-62,24 -13,29 -67,3l-7 -27 32 -74c-65,-13 -14,-22 -74,-45l1 45c0,1 2,4 3,5 0,2 3,6 4,7l5 20c1,2 1,8 1,12 -45,-30 -28,-8 -83,-24 -18,20 -27,25 -36,48 35,-3 69,-17 94,-11 2,21 -4,23 -25,26l-74 33c-13,6 -39,10 -55,13 11,109 -30,-23 -2,62 9,28 5,13 -14,49l54 12c-6,-19 -7,-65 -3,-78 23,-62 95,-73 165,-52 74,22 47,10 84,68 56,7 4,5 23,-20z"/> <path class="fil2" d="M9276 6226c-70,-57 3,-17 -45,-88 -8,-11 -5,-6 -11,-17 -60,13 -92,40 -99,99 -7,62 72,77 124,75 16,-26 19,-42 30,-70z"/> <path class="fil2" d="M5373 6828c-98,-81 -34,-70 -33,-175 -41,-3 -85,-1 -88,56l4 28c0,2 3,6 4,7l20 66c20,30 62,67 107,74 112,17 62,11 127,57 -24,-33 -27,-40 -46,-82 -68,6 -50,6 -94,-30z"/> <path class="fil3" d="M6655 3726l183 1c-45,41 -20,23 -120,27 -37,1 -77,11 -107,19l533 -20c-76,-28 -72,13 -129,-37l236 -4c-122,-35 -523,18 -597,15z"/> <path class="fil0" d="M3260 9086l-51 -4c15,17 35,31 53,47 45,-92 40,4 116,-267 14,-49 117,-207 152,-223 -18,-13 -9,-26 -82,57 -113,129 -93,174 -128,246 -32,66 -56,65 -61,144z"/> <path class="fil3" d="M6423 3877c59,1 87,-24 199,-38 68,-8 166,-17 225,-26 120,-19 404,12 489,-11 -82,-22 -162,-14 -227,-10 -44,3 -95,-1 -141,1l-110 1c-37,1 -77,16 -114,17 -20,1 -76,-9 -119,-2 -197,30 -139,48 -204,68z"/> <path class="fil2" d="M3300 9519c-8,-23 -3,-20 -5,-25l-9 -19c-4,-22 3,-17 13,-48 -65,36 -32,111 -52,162 45,-2 91,-15 122,-4 57,21 32,58 93,55 -46,-80 8,-14 -20,-74 -22,-46 -11,-8 -20,-38 -1,-3 -5,-22 -9,-27l-113 18z"/> <path class="fil2" d="M2992 8940c19,43 35,39 43,86 5,33 8,41 11,82 9,125 -51,92 -66,196 76,-29 46,-1 106,-16 -15,-52 -15,-36 -53,-79 27,-11 -1,29 34,-32 21,-36 27,-90 19,-133l-6 -21c-10,-56 14,-23 -3,-55 -14,-26 -55,-25 -84,-29z"/> <path class="fil3" d="M6807 3515c38,0 7,-7 20,32l-74 39c69,-3 48,-21 120,-27l392 28c-105,-50 -15,-35 -93,-42 82,-12 19,1 44,30l-311 -7c0,4 10,-25 9,-27l-16 -21c-2,-2 -7,-5 -10,-8 150,-36 275,21 322,-3 -183,-88 -388,3 -403,4z"/> <path class="fil2" d="M5594 6412c-13,156 136,21 93,-120 -89,-15 -57,15 -69,61 -15,59 -17,-27 -24,59z"/> <path class="fil0" d="M8313 8487l173 -42c-16,-74 -17,-33 -58,-79 -81,4 -115,36 -115,121z"/> <path class="fil2" d="M3136 9161c-54,91 -41,165 41,220 39,-12 39,-12 67,-30 -43,-11 -73,-9 -66,-66 8,-68 -4,4 -5,-40 -1,-41 41,7 -37,-83z"/> <path class="fil3" d="M8329 5877c55,25 275,17 364,19l176 6c59,8 97,-12 150,-3 -25,-27 -20,-20 -75,-20l-615 -1z"/> <path class="fil2" d="M2775 9912l21 15 -22 11c12,37 -13,17 23,29 -11,35 18,1 -12,22 -3,2 -88,1 -137,46 43,3 82,-5 105,-9 25,-4 57,-5 99,-10l-6 -15c-1,-1 -3,-5 -3,-7l-4 -59c1,-24 20,-65 -40,-66 0,0 -13,22 -14,24 -1,2 -4,12 -5,10 -1,-2 -3,7 -5,11z"/> <path class="fil2" d="M5692 6256c30,-56 -18,-20 64,-94 -4,-23 -2,-25 -12,-49 -24,-58 -8,-18 -25,-40l-47 45c0,1 -15,-1 -10,57 2,27 8,62 30,81z"/> <path class="fil2" d="M11327 6390c0,-1 -4,-6 -5,-7l-21 -13c-26,44 -42,41 -22,109 18,59 33,47 98,59 -94,-163 25,-33 -59,-132l9 -16z"/> <path class="fil3" d="M7629 4630l504 -1c-80,-7 -139,-28 -246,-28 -95,1 -184,7 -258,29z"/> <path class="fil3" d="M8595 5698c-18,32 48,31 -36,42 85,14 241,12 324,-14 -87,0 -99,10 -138,-15 0,0 -5,-15 -150,-13z"/> <path class="fil2" d="M5669 6725c31,-14 27,-30 54,-58 43,-46 28,-13 24,-89 -99,0 -103,61 -78,147z"/> <path class="fil2" d="M5433 6737c33,-45 -1,-41 -6,-49 -68,46 -41,111 28,140l44 -69c-76,-61 -59,-25 -66,-22z"/> <path class="fil2" d="M3023 9794c17,26 2,40 78,155l55 -5c-31,-32 -41,-28 -50,-90 -12,-82 -1,-52 -83,-60z"/> <path class="fil2" d="M7349 6727c-80,15 22,8 -59,86 107,3 134,146 249,30 -24,-24 -11,-2 -15,-26 -4,2 -8,6 -10,8 -43,39 -62,93 -149,-19 -44,-56 7,-13 -17,-78z"/> <path class="fil3" d="M9079 5943c-3,-1 -8,-1 -10,-2l-54 -11c-27,-3 -59,-1 -87,-1 -126,1 -434,-18 -485,11l635 3z"/> <path class="fil0" d="M8978 6651c-39,-22 -117,-24 -133,39 18,12 1,5 30,13 4,1 21,2 26,3 35,10 22,1 42,28l36 -83z"/> <path class="fil3" d="M7783 4501l304 13c-44,-14 -80,-38 -145,-39 -39,0 -151,-3 -160,26z"/> <path class="fil2" d="M3356 9258c-32,-97 21,-43 -1,-142 -10,-47 16,-19 -26,-34 -12,25 -34,206 5,191 17,-6 -1,1 22,-15z"/> <path class="fil3" d="M8499 5835c115,41 440,-19 501,5 -155,-28 -326,-11 -501,-5z"/> <path class="fil2" d="M11179 6425c42,-3 38,29 73,-96 -95,-9 -67,3 -84,9l11 87z"/> <path class="fil2" d="M1856 9967c-53,2 -48,-4 -67,13l-20 112c6,40 7,29 51,47l-36 -60c25,-13 2,2 29,-16l13 -13c-24,-26 -10,-15 -22,-31 43,-17 31,-14 53,-51z"/> <path class="fil3" d="M6833 5719c73,45 197,3 303,-5 -45,-7 -112,-7 -166,-7l-126 10c-2,-3 -8,1 -11,2z"/> <path class="fil3" d="M6939 3397l-16 46 229 0c-19,4 -19,-9 -70,-12 -33,-2 -84,3 -121,3 21,-20 -5,-28 78,-30 24,-1 46,1 73,0 -82,-10 -50,-36 -173,-7z"/> <path class="fil2" d="M2243 9768c-33,-7 3,14 -23,-17l25 -6 -1 -26 -49 -44 -14 35c16,47 -14,48 24,101 20,-17 24,-15 38,-42z"/> <path class="fil3" d="M6953 5555c104,12 180,-8 267,-11 59,-2 75,12 121,9 32,-2 62,0 78,-19 -57,-1 -452,9 -465,21z"/> <path class="fil2" d="M9373 6242c1,5 -12,23 -13,26 -38,78 -5,69 -1,74 48,-20 40,-16 70,-60l-57 -41z"/> <path class="fil2" d="M5228 6824c23,23 29,34 36,77 -50,-23 -13,-10 -57,-39 10,44 34,54 73,66 69,21 20,-6 73,48l-3 -55c-17,9 -22,6 -69,-41 -15,-15 -33,-47 -53,-55z"/> <path class="fil2" d="M11485 6440c-30,43 18,63 -8,133 -24,62 -7,19 8,30 41,-70 50,-115 0,-163z"/> <path class="fil2" d="M1856 9967l33 6c14,-72 28,-26 35,-87 -58,-1 -48,-3 -78,26 1,28 2,33 9,55z"/> <path class="fil2" d="M2940 8799c21,16 -3,3 22,10 87,27 -42,-31 22,4 21,11 23,23 39,41l-6 20c-1,2 -4,16 -6,20l27 1 15 -54 -72 -66 -40 23z"/> <path class="fil3" d="M7498 5668c27,-2 70,-11 90,-19 -27,-23 -7,-9 -46,-22 -4,-1 -8,-2 -13,-4l-45 -21c-7,22 -10,31 14,66z"/> <path class="fil2" d="M6683 6810l-70 2c-6,49 4,51 42,71l28 -73z"/> <path class="fil1" d="M7295 4422l100 16c-2,-6 -6,-18 -8,-15l-28 -50c-59,22 -20,5 -64,48z"/> <path class="fil3" d="M6851 3671l443 -4c-11,3 -160,-12 -213,-12 -94,1 -141,14 -230,16z"/> <path class="fil2" d="M5500 6881c39,-1 31,-9 59,8l-48 -100c-30,45 -5,37 -12,92z"/> <path class="fil0" d="M7046 8820c58,-11 83,-13 67,-67 -38,-4 -47,18 -67,67z"/> <path class="fil0" d="M8095 7342c-10,-65 -9,-58 -62,-74 12,70 2,65 62,74z"/> <path class="fil3" d="M7168 3747c48,26 87,-7 218,24 77,18 32,-4 56,36 13,-35 25,-20 3,-23 -26,-28 -227,-49 -276,-37z"/> <path class="fil2" d="M2135 9951c14,9 0,-2 24,17 38,30 29,36 74,22 -86,-56 -34,-34 -58,-70l-41 31z"/> <path class="fil2" d="M2484 9866l-62 9c8,37 -7,42 -6,60l32 23c-2,-33 1,2 -6,-43 31,-25 25,-21 42,-48z"/> <path class="fil2" d="M3085 9965c-17,-44 -12,-39 -47,-58 -9,41 -3,24 -24,65l71 -7z"/> <path class="fil3" d="M8314 5645l182 2c-49,-39 -121,-14 -182,-2z"/> <path class="fil3" d="M6765 3633c33,12 81,19 118,3 -23,-32 -93,-20 -118,-3z"/> <path class="fil1" d="M7494 4432l69 12c43,5 19,18 44,-17 -27,-22 -81,-13 -113,5z"/> <path class="fil0" d="M4485 7757l34 7c8,-47 1,-58 -37,-80l3 73z"/> <path class="fil3" d="M9286 4652l190 -9 -157 -18c-29,38 -25,26 -33,27z"/> <path class="fil2" d="M2022 9382c19,16 0,6 30,14l44 11c-8,-23 5,-38 -32,-46 -31,-7 -15,0 -42,22z"/> <path class="fil3" d="M8795 5774c31,14 130,8 166,5 -22,-10 -124,-27 -166,-5z"/> <path class="fil0" d="M6416 9026c0,0 43,8 1,-33 -25,-24 -9,-8 -44,-13 10,46 3,48 43,46z"/> <path class="fil2" d="M7872 6398c-54,14 -78,26 -68,68 19,-20 7,19 25,-45l60 16 -16 -39z"/> <path class="fil2" d="M2191 9646l1 -24c-63,-24 -31,-35 -73,10 4,2 8,6 11,7l62 7z"/> <path class="fil3" d="M8852 5003c93,-8 127,-31 226,-29 -89,-5 -169,-7 -226,29z"/> <path class="fil2" d="M2699 9341c25,15 -14,2 25,7l52 -7c-46,-46 -35,-48 -77,0z"/> <path class="fil3" d="M6630 3710c52,-21 99,-19 139,-33 -41,-20 -114,3 -139,33z"/> <path class="fil2" d="M5544 7017c66,-19 29,6 50,-37 -47,-19 -48,-25 -50,37z"/> <path class="fil0" d="M6164 9076l9 33c22,-6 19,4 39,-11 29,-22 -1,7 22,-27l-70 6z"/> <path class="fil2" d="M1914 10132c-15,-12 7,-14 -43,-14 -76,-1 -13,-10 -45,21 43,1 45,11 88,-7z"/> <path class="fil1" d="M7391 4437c41,8 44,1 89,-11 -2,-1 -10,-17 -37,-15 -45,3 -26,5 -53,26z"/> <path class="fil2" d="M2528 9355c-16,-40 7,-7 -30,-43l-22 -18c-1,-4 -5,-4 -7,-6 -13,26 -4,15 -22,34 84,5 8,-2 81,34z"/> <path class="fil2" d="M5764 6693c18,53 -1,26 39,50 23,-43 9,-50 -39,-50z"/> <path class="fil2" d="M5669 6793c10,51 -4,76 59,17 -37,-13 -26,2 -59,-17z"/> <path class="fil2" d="M5580 6926c44,42 32,37 55,0 -18,-14 8,-11 -27,-13 -45,-4 -20,8 -28,13z"/> <path class="fil1" d="M9903 5622c13,-19 30,-5 -2,-58 -29,25 -17,8 -25,43l27 15z"/> <path class="fil2" d="M5733 6450c-37,15 -26,16 0,53 46,-62 1,-52 0,-53z"/> <path class="fil3" d="M6931 3632l118 -5c-6,-7 -110,-28 -118,5z"/> <path class="fil0" d="M11939 8327c-46,-9 -11,-8 -26,22 41,30 6,8 54,28l-27 -50z"/> <path class="fil2" d="M5530 6752c51,13 14,-35 7,-46 -3,4 -18,-10 -18,30 0,3 3,14 11,16z"/> <path class="fil2" d="M5052 6788c-5,5 -19,19 -16,38l29 37c-1,-48 5,-42 -14,-75z"/> <path class="fil0" d="M4623 8231l41 1c-31,-52 2,-19 -45,-47l4 46z"/> <path class="fil2" d="M9273 6411c37,-13 36,-6 57,-40 -51,0 -42,-4 -57,40z"/> <path class="fil2" d="M2566 9291c-15,12 -24,12 -23,45 3,2 9,10 9,7 1,-4 9,4 13,4 8,-11 16,-4 0,-55z"/> <path class="fil3" d="M7157 5307c-20,-20 -11,-4 -45,-6 -22,-1 -58,-7 -83,-9 57,32 51,17 128,15z"/> <path class="fil2" d="M7224 6764c10,49 -11,44 50,50 -22,-30 -17,-29 -50,-50z"/> <path class="fil2" d="M7526 6718c-31,7 -27,10 -32,33 -3,16 5,22 15,41 4,-45 8,-40 18,-74z"/> <path class="fil2" d="M3038 8896c17,55 -11,26 49,44 -30,-57 -8,-32 -49,-44z"/> <path class="fil3" d="M8390 5723c-34,-34 -29,-5 -5,-45l-72 8 77 36z"/> <path class="fil2" d="M9113 6384c15,17 8,10 22,31l23 31c11,-52 -4,-51 -45,-62z"/> <path class="fil2" d="M1970 9856c25,40 -12,32 51,51 -14,-37 -15,-39 -51,-51z"/> <path class="fil2" d="M5035 6911c24,-18 7,14 24,-19 -10,-23 -24,-21 -48,-21l25 40z"/> <path class="fil2" d="M5082 6751l-30 -74c-25,33 8,65 30,74z"/> <path class="fil2" d="M2648 10034c-30,-27 -6,-14 -42,-18 11,31 -15,12 19,26 42,17 19,-6 22,-8z"/> <path class="fil2" d="M2191 9622l26 6c-13,-26 -5,-28 -37,-51 3,18 0,23 11,45z"/> <path class="fil2" d="M2647 9015l70 -16c-34,-14 -49,-17 -70,16z"/> <path class="fil2" d="M9209 6326c18,42 -2,23 37,42 -8,-35 10,-21 -37,-42z"/> <path class="fil2" d="M2774 9937l1 -25 -30 6c15,30 -25,30 29,20z"/> <polygon class="fil2" points="2774,9672 2798,9670 2800,9646 2772,9645 "/> <path class="fil3" d="M6375 4261l62 -5c0,0 -21,-12 -33,-12 -37,1 -5,-13 -29,17z"/> <path class="fil2" d="M2914 8798l27 1c6,-49 7,-13 -18,-27 -16,10 -2,3 -8,26z"/> <path class="fil0" d="M12263 8254l0 -29c-31,-11 -10,-12 -42,6 33,11 -4,-21 42,23z"/> <path class="fil2" d="M2194 9674c34,-7 9,10 29,-20l-32 -9 4 29z"/> <path class="fil2" d="M2558 9044c75,-7 -9,-24 67,-41 -46,4 -41,15 -67,41z"/> <path class="fil2" d="M2501 9660c28,33 -10,22 37,30 -20,-36 18,-15 -37,-30z"/> <path class="fil3" d="M7687 5710c-57,-2 -97,-24 -176,-15l176 15z"/> <path class="fil2" d="M2817 8994c61,1 13,2 31,-14 -21,-10 31,-35 -16,-6 -26,16 0,-17 -15,20z"/> <path class="fil0" d="M11891 8131l24 4c-9,-34 15,-16 -26,-28l2 24z"/> <path class="fil2" d="M9141 6329c23,20 -13,7 21,10 60,6 -9,9 15,-10 -16,-12 2,-8 -23,-10 -50,-5 13,-13 -14,10z"/> <path class="fil2" d="M5208 6742c12,-20 16,-63 4,-76l-4 76z"/> <path class="fil2" d="M9206 6454c-49,17 -30,7 -41,42l41 -42z"/> <path class="fil2" d="M2360 9550l26 1c-10,-33 11,-11 -16,-26l-10 26z"/> <path class="fil2" d="M3443 9688c1,10 15,27 17,1 1,-13 -21,-32 -17,-1z"/> <path class="fil2" d="M5117 6787c-7,-6 8,-21 -32,-4 24,14 4,19 32,4z"/> <path class="fil2" d="M2554 9426c22,34 -2,11 30,26 -12,-32 6,-19 -30,-26z"/> <path class="fil0" d="M11679 8479l-26 -37c10,47 -17,27 26,37z"/> <path class="fil2" d="M2155 9890c50,-6 17,7 39,-23 -29,12 -22,4 -39,23z"/> <path class="fil2" d="M1893 9632c-2,17 8,17 15,-1 14,-38 -14,-7 -15,1z"/> <path class="fil2" d="M2557 9082c-3,-3 -22,-22 -25,-25 3,13 -32,18 25,25z"/> <path class="fil2" d="M6697 6875c16,16 -22,13 35,19 -16,-15 -10,-14 -35,-19z"/> <polygon class="fil2" points="2390,9577 2412,9558 2386,9550 "/> <path class="fil2" d="M2502 10062c-1,15 10,17 15,-1 10,-32 -14,-7 -15,1z"/> <path class="fil2" d="M2253 10000c29,24 -4,3 34,21 -17,-25 11,-17 -34,-21z"/> <path class="fil2" d="M2458 9573c-13,-37 32,-2 -14,-17 -54,-17 19,-18 -18,15l32 2z"/> <path class="fil2" d="M3136 9161c23,-11 16,2 19,-20 -26,1 -8,-6 -19,20z"/> <path class="fil2" d="M5558 6796c11,-23 18,-16 32,-46 -21,13 -23,24 -32,46z"/> <path class="fil2" d="M2528 9355c13,37 -16,13 28,24l-28 -24z"/> <path class="fil2" d="M2072 9771c1,4 11,29 12,2 0,-7 -16,-21 -12,-2z"/> <path class="fil2" d="M2488 9174c20,32 -11,-18 0,0z"/> <path class="fil4" d="M5568 6468c-88,83 -129,160 -126,230"/> <path class="fil4" d="M4915 6986c-81,66 -137,124 -169,176"/> <path class="fil0" d="M5490 7807c-4,-49 129,-550 151,-586 17,-28 26,-44 46,-80l44 -72c-17,51 -25,11 -25,76l251 -124c-75,102 -259,81 -339,384 -24,91 -14,138 -58,206 -27,42 -39,124 -70,195zm0 0c0,0 0,0 0,0 0,0 0,0 0,0 0,0 0,0 0,0zm-90 106c54,-44 26,-8 48,-54 23,-47 -5,-21 41,-52 -20,45 -47,85 -90,106zm972 -1184c-4,-61 -31,-81 -13,-125l16 39c7,19 12,31 17,60l-20 26zm-154 183c21,-119 63,-123 154,-183l50 82c-109,-42 -115,-10 -176,72l-28 29zm-682 1050l43 -39c-45,-36 -6,-37 21,-135 18,-65 13,-65 50,-113l24 -31c47,-80 141,-178 225,-220 52,-25 117,-21 177,-46 201,-84 48,-339 136,-460 1,-1 5,-4 7,-6 2,45 -12,83 -12,138 1,136 40,256 -98,334 -78,44 -156,50 -220,87 -24,14 -56,37 -81,69 -40,51 -7,55 -82,73 -32,102 -45,53 -72,192 -18,92 -47,125 -117,158zm310 797c20,-38 56,-61 93,-86 46,-30 1,-9 54,-27l-70 66c-19,13 -16,11 -32,23 -40,29 7,10 -45,24zm1830 -995c20,-2 5,5 0,0zm-83 147c18,-79 41,-131 67,-197l14 47c0,1 1,2 1,3 -2,0 -3,0 -5,1l-77 146zm-372 277c53,-54 97,-52 163,-98 30,-21 44,-41 73,-66 31,-28 44,-31 82,-56l-108 113c-25,30 -8,33 -46,64 -47,38 -35,-3 -67,47l-95 -4zm-2 139c15,-108 15,-64 35,-75 -10,45 -4,45 -35,75zm-125 236c28,-86 43,-146 104,-215l21 -21c-37,59 -18,67 -64,117 -54,60 -28,57 -61,118zm1518 -1770c2,-1 -3,4 0,0zm-143 92c29,-63 95,-88 160,-109 -11,10 -15,15 -17,17 -1,0 -6,2 -16,9l-85 54c-26,24 -2,15 -43,29zm-84 1082c-77,-49 -143,-193 -237,-45 -84,133 -124,135 -162,172 -120,116 -99,241 -133,386l-8 2 -6 1 -45 55c8,-34 20,-62 27,-86 57,-201 17,-261 179,-384 75,-57 51,-91 97,-140 37,-39 32,-4 52,-60 5,-16 23,-79 24,-84 3,-17 8,-90 8,-110l-10 -62c-1,-4 -2,-7 -3,-11 -4,-21 -1,-13 -5,-36 -10,-54 -39,-114 -66,-158 -21,-34 -32,-30 -52,-58 -14,-19 -11,-21 -19,-37l-36 -47 -15 22c-1,-38 -15,-77 -17,-101 -2,-19 2,-91 4,-112 0,1 4,52 5,55 8,63 114,168 182,141l78 -102c39,-62 123,-243 241,-285l3 35c-30,8 -4,-15 -43,21 -25,23 -10,10 -29,39 -124,180 -92,76 -135,281 -7,34 -6,23 -10,33l-10 -84c-10,10 -27,46 -50,67 -45,41 -110,65 -47,165 23,37 19,25 51,36 1,0 4,2 6,3 -21,77 28,209 30,319 54,26 45,17 79,73 42,70 51,18 71,94zm-267 -1518c46,-30 -44,45 0,0zm-259 671c75,85 68,302 21,411 26,-206 12,-197 -21,-411zm-1126 -27c-254,-193 -279,-62 -285,-245 4,80 51,108 121,132 94,31 116,44 164,113zm-1392 168c-74,56 -68,70 -128,85 12,-14 9,-13 22,-25l106 -60zm-430 -208c-89,49 -307,316 -343,418 -18,52 -35,157 -44,220 16,23 29,43 55,67 53,-9 43,-20 104,-4 15,4 34,9 50,16 58,28 22,10 43,36 -64,7 -102,-16 -141,-15 -14,1 -100,27 -146,34 15,-41 12,-37 -5,-67l-33 1c-32,86 -14,27 -73,77 -73,62 -20,22 -107,58 -59,24 -131,107 -142,164 45,-29 71,-27 117,-49 53,-25 47,-48 113,-69 -2,3 -6,4 -7,9 -2,15 -16,5 -13,34 12,4 1,18 48,-11 7,-39 -20,-7 -3,-46l126 -28c20,-19 42,-42 71,-56 43,-20 53,-17 67,29l8 57c-2,70 68,64 -4,230 57,78 87,60 197,-17 63,-44 63,-79 104,-109 19,-14 27,0 81,-39l39 -29c76,-59 109,-108 138,-195l87 19c-1,-53 -4,-60 -36,-89 34,-26 31,-20 53,-52 20,-29 14,-28 42,-50 -7,55 -38,76 -41,148 -1,38 3,55 -4,96 -11,68 -17,16 7,86 -13,11 -21,10 -35,40 -7,15 -8,29 -11,55 44,-49 65,-80 125,-107 -12,30 -21,34 -38,63 52,27 87,-10 174,-37l1 23c-32,38 8,16 -93,46 -61,18 -215,98 -260,171 -155,252 -35,115 -234,350 -67,79 -118,301 -135,420 -15,102 -31,334 -108,446 -8,39 -26,114 0,139 14,8 -25,22 44,6l596 -170c116,-37 104,-22 185,-103l36 33c49,-36 146,-180 134,-270 -9,-68 -4,-72 63,-186 27,-46 42,-63 83,-84 -15,48 -37,54 -64,103 -67,128 -35,162 -82,279l-41 85c-9,31 -3,43 30,42 23,-1 9,-1 29,-9 13,-5 39,-17 61,-26 45,-17 93,-27 139,-42 238,-80 111,-48 246,-116l98 -67 6 64 74 -22 -26 -93c87,-84 22,-59 93,-89l-8 77c25,19 41,35 63,61l416 -144c54,-33 74,-54 151,-54 10,-63 18,-8 30,-71l-13 -88c-24,-93 -34,-111 13,-217l35 -74c125,-179 -31,-151 25,-352 19,-68 15,-104 54,-168 58,-96 104,-207 191,-267 -19,-41 -6,-31 -43,-44 78,-47 130,-105 184,-108 -19,23 -34,43 -59,66l-114 135c-81,142 -235,342 -176,557l64 9c-53,87 -10,-41 -105,188 -15,36 -14,19 -25,45 -23,51 -40,131 -23,182l27 -40 34 197c68,25 69,31 151,1 44,-16 105,-34 150,-44 87,-20 248,-53 288,-117 75,29 36,8 90,-6 38,-10 15,10 84,-12 138,-43 376,-73 406,-122 48,-82 32,-141 123,-119 -23,-56 -4,-62 41,-96 -10,-56 -13,-103 -24,-146 -16,-65 -26,-51 -52,-133 10,6 11,-4 33,24 16,20 10,22 19,48 84,247 5,145 5,319 122,75 69,79 247,50 176,-29 595,-104 770,-98 164,5 396,-21 609,-8 91,6 589,53 614,46 3,-7 44,-35 -35,-85 -40,-25 -56,-23 -50,-82 161,152 98,43 163,188l83 1c-19,-65 -29,-37 -41,-111 -12,-76 -11,-67 -59,-107 -73,-63 -52,-167 -159,-173l12 108c-73,-84 27,-87 -138,-164 -106,-49 -302,-199 -468,-158 -121,30 -426,-84 -495,-129 -232,-151 -168,-93 -359,-197l-87 -65c-43,-35 -94,-84 -97,-137 27,43 143,152 212,188 140,74 190,61 333,98l221 100c78,60 313,93 419,122 155,42 490,151 563,285 80,145 27,54 90,119 50,52 26,112 57,165 43,73 198,123 305,99 55,-117 27,-250 29,-362 3,-134 -30,-212 -99,-319 -70,-109 -123,-142 -215,-230 -27,-26 -35,-34 -56,-57 -97,-102 -165,-88 -169,-153 62,25 78,46 128,83 17,13 49,28 68,44 21,18 31,35 55,57 46,43 73,65 113,109 259,289 183,421 228,687 12,74 50,114 47,171l-74 -88c-64,119 90,100 153,118 0,-5 8,-36 11,-62 -54,-71 -51,-52 -47,-158 3,3 8,3 10,11 2,12 46,95 94,133l57 57c34,37 43,36 87,19 6,-19 20,27 4,-27 0,-1 -17,-28 -22,-33 -15,-16 -31,-24 -47,-50 -29,-48 -28,-79 -80,-103l3 -55 -21 -19c-17,-25 -5,-1 -8,-28 -6,-49 13,-37 -33,-57 42,-7 2,4 20,-21 -27,-44 5,-25 -46,-120l16 -17 -33 -27c1,29 7,83 10,136l-36 -34c46,-5 0,9 22,-29 -18,-9 -27,-14 -42,-24 38,-22 30,25 29,-46 0,-20 -45,-149 -74,-185 -61,-77 -117,-118 -174,-188 -60,-74 -289,-385 -297,-440 -59,-45 -73,-179 -87,-247 -28,-144 -66,-104 -129,-188 -80,-106 -235,-284 -376,-264 -14,86 75,85 119,174 49,98 6,268 134,462 42,64 92,112 112,176 -330,-276 -163,-558 -338,-686 -160,-117 -71,-174 -363,-248 -102,-26 -187,-48 -299,12 -49,27 -90,54 -131,80l-238 164c-135,62 -270,223 -235,373l-16 -14c-21,-13 -26,-4 -39,35 -12,38 0,-2 -6,46l48 -32c-26,79 -30,190 13,253 -36,-32 -40,-43 -55,-102 -64,-254 80,-250 18,-365 -101,-20 -79,20 -178,8 52,-30 67,-27 87,-84 -150,-175 -57,97 -364,-151 -44,-35 -90,-53 -149,-73 -64,-22 -83,-7 -165,0 90,-111 151,67 152,-216l-5 -131c-23,9 -32,11 -56,28 -24,-22 -87,-95 -129,-115 24,-74 0,-62 5,-130 4,-51 13,-8 9,-68l5 -239c1,-75 -18,-76 -44,-124 23,-35 40,-42 66,-74 24,-29 27,-46 46,-76 84,-6 72,48 144,89 -5,-66 -16,-88 -12,-133 10,-103 30,-322 -19,-402 -84,1 -25,29 -88,16 15,-44 28,35 13,-54 -131,-48 -432,-50 -577,-27 -49,8 -118,24 -143,69 -3,7 -17,544 -17,589 20,11 19,9 31,32 -24,20 -27,7 -29,56 82,47 -22,-96 160,106 42,47 104,84 130,144 -39,71 -42,37 -36,153 11,251 -36,390 119,419l18 53c35,14 40,26 59,52 29,39 16,35 38,71 53,-23 77,-79 118,-89 79,-20 29,3 40,8 -3,3 -6,6 -9,9 -4,3 -10,6 -16,11 -125,86 -43,106 -149,197 -95,81 -273,55 -284,249 -5,90 75,130 163,130 39,-29 15,-21 56,-40 5,8 34,-4 10,48 -12,26 -13,15 -41,36l3 41c-74,-86 -84,-35 -149,-87 -49,-39 -31,-93 -100,-118 8,56 42,125 40,177 -2,50 -24,108 -14,165 -32,-23 -30,63 -23,-46l8 -161c-22,-18 -49,-41 -79,-60l54 -24c-5,-63 -2,-62 -63,-69l-26 55c-35,-31 -54,-34 -108,-44 -46,-64 -47,-68 -138,-68 -70,-1 -135,-12 -197,11 -49,18 -189,114 -190,240 -53,24 -11,1 -37,28 17,34 16,19 10,47 -7,34 -65,100 -89,118 4,-124 6,-98 -25,-193l50 35c38,41 -10,9 39,58 13,-57 27,-123 -5,-178 -66,-8 -55,-19 -62,52 -65,-184 -209,-167 -243,-270 -44,-28 -25,-23 -47,-52l-34 -46c-56,-123 -34,-103 -80,-112 -39,-8 -56,-12 -63,-14 7,3 17,9 -41,11 -46,1 0,1 -52,-21l-80 59c-60,63 -101,131 -164,153 -154,53 -196,41 -267,179 -51,98 -32,59 -103,132 -212,220 -100,319 -188,482 -4,-47 20,-96 21,-162 1,-70 25,-124 22,-164l-95 26c35,-31 74,-48 99,-84 36,-53 46,-53 82,-97 -12,-9 21,-13 -45,-21 -68,-8 -105,49 -135,65l21 -63c-54,21 -147,20 -210,0 -64,-20 2,-38 -185,-24 -29,-27 -39,-36 -82,-7 14,-30 23,-36 27,-43 -37,30 -69,59 -96,86 17,-13 41,-19 93,-20zm-154 710c101,-119 118,-27 248,-189 74,-92 45,-4 97,-111 20,-41 54,-100 80,-142l38 39c-30,53 -85,115 -120,146 -69,59 -64,69 -105,157 18,50 28,30 31,84 0,8 -11,191 -33,233 -2,3 -3,7 -5,10 -12,21 -15,18 -22,25 -3,-32 43,-218 9,-261l-63 -60c-95,48 -70,99 -156,71zm996 -718c17,-31 39,-50 69,-69 -18,19 -61,55 -69,69zm275 -94c30,-100 16,0 51,-176 20,-102 46,-92 77,-147 -75,147 -65,252 -128,323zm305 1282c-50,87 -40,36 -68,86 -35,64 -64,224 -195,257 38,-50 107,-102 136,-163 37,-75 54,-158 127,-181zm253 -430c-18,-60 -8,-78 -36,-154 -16,-45 -32,-109 -42,-164 10,3 50,-8 79,100l23 116c12,25 17,23 26,33 25,-18 6,4 27,-30l32 -45c-3,64 -7,47 -21,97l-34 296c-23,128 -153,199 -117,305 3,2 8,2 10,6 0,0 68,36 99,-24l8 -19 5 -9c23,-44 147,0 232,-24 -8,12 -4,51 -101,41 -74,-8 -55,-32 -133,8l-67 100c-73,202 -58,311 -149,406 25,-140 66,-136 34,-308 -24,-131 -77,-144 -73,-302l-54 3c59,-77 169,-58 241,-380 14,53 -7,108 -30,166 -44,109 -197,184 -101,390 25,54 5,35 45,80 4,-71 -14,-147 -1,-211 28,-131 92,-24 128,-313 10,-82 10,-127 -13,-199l-17 38zm480 93c10,-29 4,-34 17,-65 24,-57 8,-34 44,-49 -21,42 -18,44 -35,86 -37,89 -60,127 -78,254l-12 58c-12,6 -5,6 -27,10 -2,0 -11,-1 -15,0 -14,35 -6,31 -2,77 -58,-43 -20,-10 -72,-22 34,-61 47,-47 75,-91 36,-56 43,-135 70,-195 9,-20 25,-31 36,-63zm56 -802c14,-44 25,-43 43,-58 -14,52 -42,75 -29,107 -10,-6 -42,41 -14,-49zm2988 -552c21,-21 -32,-20 36,-13 -22,19 -8,16 -36,13zm-4801 655c0,-31 6,-37 18,-58l-18 58zm1056 181c-51,-17 -48,-1 -88,-32 106,38 93,-14 175,66 -28,-15 -55,-24 -87,-34zm622 -105c-7,-7 -23,-17 -30,-22 117,-16 39,-38 115,-53 -28,42 -37,66 -63,102 -2,-2 -4,-8 -5,-6 -1,2 -4,-5 -5,-7l-12 -14zm725 404c-9,26 4,10 10,1 11,-16 -9,-4 -10,-1zm2404 -576c-5,2 -6,-13 8,-14 31,-4 -8,14 -8,14zm-2259 537l15 -47c-1,2 20,-3 8,27 -1,2 -4,6 -5,8 -1,2 -7,5 -9,7 -1,2 -8,2 -10,5zm-1 2c0,-1 0,-1 1,-2l-1 2zm38 -1689c-8,116 -5,64 -34,69l6 -167c45,15 31,51 28,98zm6 -633c0,117 -13,74 -27,86 -25,-45 -18,-112 -12,-167 47,19 39,22 39,82zm223 -129c-30,-14 -40,-36 -42,-81 -5,-102 42,-81 42,-81 16,42 19,122 0,162zm-487 -82c-40,-53 -32,-139 -13,-176 42,11 22,-19 37,30 1,4 17,107 -24,146z"/> <path class="fil2" d="M5532 6613c12,106 2,101 113,112 -5,-43 -2,-44 -21,-80 -54,-100 5,-46 -30,-119l-57 -3c-22,49 -21,11 -16,79 -4,-4 -8,-8 -11,-11l-17 -19c-2,-2 -5,-4 -8,-7 -9,13 -16,27 -22,40 14,17 -4,34 69,9z"/> <path class="fil4" d="M10962 6477c47,-30 100,-47 160,-51"/> <path class="fil1" d="M10962 6477c47,-30 100,-47 160,-51 28,-65 34,-308 2,-368l-46 -7 -18 89c-37,-18 -55,16 -80,-27 -17,-29 -3,-29 -9,-47 -12,-37 3,-16 -28,-31 -36,17 -16,0 -31,41 -8,22 -7,28 -18,53 -117,7 -103,-47 -116,-93 -28,-2 -118,-4 -138,-9 -47,-12 -36,-16 -49,-42l-24 -47c-34,15 -7,-2 -30,28 -13,17 4,8 -26,36l-59 -6 -13 -66c-31,-3 -37,-4 -52,-8l-34 71 -78 -5c-53,-67 -8,-27 -76,-66l-13 69 -89 12 -6 81c-41,9 -65,22 -92,54l-78 40c-3,72 7,91 60,115l115 65c55,22 89,21 151,30 114,18 236,131 295,220 56,83 89,98 127,138 20,22 2,-4 18,26l6 19c1,-2 2,6 4,14l69 -30 -21 -85c46,-24 47,-44 113,-67 -22,-63 13,-28 -37,-49 19,-26 24,33 15,-31 30,20 11,18 49,21 22,-41 31,-62 78,-85zm-353 126c-7,-35 -18,-28 24,-34l-24 34zm42 -510c5,60 5,1 -14,28 -38,-20 -50,-32 0,-55 17,25 9,-27 14,27zm-198 -26c31,12 8,5 16,31 -49,23 -34,16 -54,-19 0,0 -10,-30 37,-11zm-189 -14c6,8 9,22 6,47 -48,5 -57,-13 -50,-29 7,-18 32,-34 44,-18zm6 47c-48,5 -57,-13 -50,-29 7,-18 32,-34 44,-18 6,8 9,22 6,47z"/> <g id="_1128044064"> <path class="fil5" d="M5544 7017c2,-62 3,-56 50,-37 -21,43 16,18 -50,37zm6204 -371c-15,-23 -24,-50 -28,-78 -42,-77 12,12 -47,-53 -71,-79 -25,-34 -124,-71l-14 -38c9,-1 21,-1 37,-1 -16,-23 -27,-49 -32,-76 -1,0 -1,-1 -2,-1 -45,-57 -43,-222 -120,-260 9,53 -5,24 38,46 10,100 49,267 29,313 -18,-25 -25,-35 -40,-57 -104,13 -3,-35 -94,-5 -4,-75 3,-73 49,-103l30 75c16,-109 1,-93 -38,-120l17 -9c19,-24 13,-59 3,-85 -1,-3 -4,-8 -5,-11 -1,-3 -4,-7 -6,-10l-22 36c-19,65 -15,93 -61,161l-124 -14c-58,-124 37,-281 -124,-273 -25,47 -9,57 -44,89 -36,-32 -23,-11 -33,-73l-92 0c-31,36 -9,37 -56,54 -17,-31 -13,-36 -32,-68l-190 -16 -5 -86c-49,-15 -10,-26 -106,-14l-14 28c-1,2 -3,7 -4,9l-10 18c-48,-35 -15,-67 -83,-70 -101,-4 -24,37 -84,82 -49,-36 -9,-31 -28,-68l-95 -12c-31,40 -4,29 -44,62l-56 -20c-6,-67 1,-285 17,-332 9,-1 20,-2 30,-3 -3,-17 -4,-35 -3,-52 -8,-6 -14,-14 -21,-28l-12 -9c-47,-34 -74,-84 -80,-136 -83,-34 -97,-66 -61,-251l41 0c-10,-23 -16,-49 -17,-75 -41,-15 -75,-42 -118,-96l-85 -67c-27,-21 -47,-48 -59,-78 -16,-16 -36,-38 -61,-69 -72,-87 -42,-94 -208,-264 -33,-34 -1,-21 -57,-29 -48,46 -74,134 -153,172 -11,-27 -8,-5 -12,-46 -6,-59 6,-74 31,-125 -24,-70 -66,-134 -116,-186 -68,10 -46,44 -148,138 0,13 0,39 2,49 15,70 19,-5 17,159 -1,88 19,197 -10,228 -98,59 -509,50 -611,6l3 -81c-61,-30 -121,-119 -140,-134 -42,-31 -191,-161 -195,-166l-29 -55c-23,-33 -66,-73 -98,-98l-86 55c-2,2 -4,6 -6,9l-138 152c-27,26 -39,46 -88,48 -9,-70 40,-124 17,-212 -30,-112 -11,-75 -24,-255 -50,14 -35,168 -35,232 -3,2 -8,4 -10,5l-21 8c-3,1 -7,2 -10,3 -79,29 -69,45 -120,-11 41,-17 12,19 28,-47 -83,-106 -19,-65 -72,-90 -5,-2 -28,-27 -37,10 -6,24 -17,-1 28,23 -32,12 -45,24 -64,47l25 51c-39,16 -35,22 -71,44l-55 -54c-162,3 -76,32 -165,49 -31,-28 -15,-31 -56,-52 -100,-22 -102,61 -153,56 -50,-21 -9,-10 -60,-47l-110 4c-74,98 -128,8 -194,-108 -45,-79 -45,-97 -23,-209l16 -11c2,-1 6,-4 9,-5 81,-39 178,-32 251,-37 179,-12 501,-53 673,-7 140,37 152,-15 213,139l19 -22c31,-36 64,-59 100,-72 -9,-18 -15,-38 -18,-58 -14,-6 -25,-13 -34,-22l18 -39c-9,-10 -17,-22 -24,-34 -84,-4 -92,17 -169,-69 -41,-46 -53,-51 -92,-88 -64,-61 -118,-135 -182,-207 -61,-67 -103,-161 -167,-205 -11,-121 31,-62 66,-123 -3,-2 -7,-5 -9,-6 -33,-15 -49,1 -69,-58 -4,3 -8,7 -11,9 -68,47 23,7 -40,23 -15,4 -50,0 -68,0 24,64 -12,38 38,67l20 7c3,1 8,2 11,3 26,8 8,0 33,9l6 58 -226 254c-48,14 -19,2 -66,45l-378 325c-6,0 -12,0 -18,0 -4,24 -13,47 -25,68 8,36 46,8 76,62 23,42 15,89 -6,130 17,16 -13,33 18,41 -66,30 9,-28 -53,10 -56,34 -16,68 -73,71l-1 4c-5,31 -17,58 -34,82 28,91 28,-33 24,209 -1,67 -7,125 3,198l-35 41c4,13 7,26 9,40 1,11 2,21 1,31 46,13 86,30 108,55 33,37 43,141 41,220 0,5 1,9 1,14 1,41 -11,79 -32,111 6,0 13,0 19,1 17,37 12,86 14,144 -65,-23 -41,-35 -127,-19 3,71 16,93 -59,97 -27,-72 6,-82 -77,-121 -91,37 -45,22 -72,121l-79 -3c-4,-53 5,-90 -27,-109 -25,-15 -62,-1 -85,9l-11 109c-144,12 31,-124 -144,-103 -9,13 -8,2 -16,25 -13,39 1,-19 -1,64 0,15 0,30 -4,44 -4,13 -6,21 -8,25 1,9 2,19 2,29l0 40c8,23 8,28 1,61l49 41c-5,3 -11,5 -18,7 20,31 32,69 32,109l0 7c0,18 -2,36 -7,53l7 0 15 68c7,56 -6,59 -1,111 -63,-19 -7,-2 -39,-15 -63,-26 -56,-11 -77,46 -23,65 -24,15 -12,111l-43 16c-3,1 -5,3 -8,4l0 12c0,37 -10,72 -28,102 3,40 5,90 4,109 -11,8 -23,14 -35,18 -12,29 -31,54 -55,74 6,4 10,8 15,12l17 19c3,3 7,8 11,11 -5,-67 -6,-30 16,-79l57 3c35,73 -23,19 30,119 19,36 16,37 21,80 -111,-11 -101,-6 -113,-112 -73,25 -55,8 -69,-9 -38,35 -27,33 -77,63 -68,-65 -47,-52 -139,-34 -27,-23 -27,-38 -45,-52 -31,-25 -40,-6 -81,-33 -41,49 -38,20 -66,71l-97 -11c-10,9 -20,17 -31,25 -4,4 -8,8 -13,12 -10,37 -21,56 -43,86 -6,0 -12,-1 -19,-1 11,20 19,42 23,64 16,12 29,27 37,49 15,37 1,35 5,93 5,71 -3,33 -30,94 42,-29 52,-20 82,7 186,-15 121,4 185,24 62,19 155,21 210,0l-21 63c30,-16 67,-73 135,-65 65,8 33,11 45,21 -35,44 -45,44 -82,97 -25,36 -64,54 -99,84l95 -26c3,40 -21,93 -22,164 -1,66 -25,115 -21,162 87,-163 -24,-262 188,-482 71,-73 52,-35 103,-132 71,-138 112,-126 267,-179 63,-21 104,-90 164,-153l80 -59c52,22 6,22 52,21 119,-4 -45,-28 105,2 46,9 24,-11 80,112l34 46c23,30 3,25 47,52 34,103 178,86 243,270 7,-71 -4,-59 62,-52 32,55 18,121 5,178 -49,-49 -1,-17 -39,-58l-50 -35c31,95 29,68 25,193 24,-18 82,-84 89,-118 6,-28 8,-13 -10,-47 27,-27 -16,-4 37,-28 1,-126 141,-222 190,-240 62,-23 127,-12 197,-11 91,1 92,5 138,68 54,10 72,13 108,44l26 -55c61,6 58,6 63,69l-54 24c30,19 56,41 79,60l-8 161c-8,108 -9,23 23,46 -10,-58 11,-115 14,-165 3,-52 -32,-121 -40,-177 69,24 51,78 100,118 65,52 75,1 149,87l-3 -41c27,-21 28,-10 41,-36 25,-52 -4,-39 -10,-48 -40,19 -16,10 -56,40 -88,0 -168,-40 -163,-130 12,-194 189,-168 284,-249 107,-91 25,-111 149,-197 85,-58 -44,48 25,-20 -10,-5 40,-28 -40,-8 -41,11 -64,66 -118,89 -22,-36 -9,-32 -38,-71 -19,-26 -24,-38 -59,-52l-18 -53c-155,-29 -108,-168 -119,-419 -5,-115 -2,-82 36,-153 -26,-60 -88,-97 -130,-144 -182,-202 -78,-59 -160,-106 2,-48 4,-35 29,-56 -12,-22 -10,-21 -31,-32 0,-45 14,-582 17,-589 25,-45 95,-61 143,-69 144,-23 445,-21 577,27 14,89 2,10 -13,54 63,13 4,-15 88,-16 49,80 29,300 19,402 -4,45 7,67 12,133 -72,-41 -60,-95 -144,-89 -18,30 -22,47 -46,76 -27,32 -43,39 -66,74 26,49 45,50 44,124l-5 239c4,60 -5,18 -9,68 -6,67 19,56 -5,130 42,20 105,93 129,115 24,-17 33,-19 56,-28l5 131c-1,283 -62,105 -152,216 82,-8 100,-22 165,0 59,20 105,37 149,73 307,247 214,-24 364,151 -20,57 -35,54 -87,84 99,12 76,-28 178,-8 62,115 -82,110 -18,365 15,58 18,69 55,102 -44,-64 -39,-174 -13,-253l-48 32c6,-49 -6,-8 6,-46 12,-40 18,-49 39,-35l16 14c-35,-151 101,-311 235,-373l238 -164c41,-26 82,-53 131,-80 112,-61 197,-38 299,-12 292,75 203,131 363,248 175,128 8,410 338,686 -20,-63 -70,-112 -112,-176 -128,-194 -86,-364 -134,-462 -45,-89 -134,-88 -119,-174 141,-21 296,157 376,264 64,85 101,44 129,188 13,68 27,202 87,247 -9,-64 -30,-101 -31,-179 -1,-70 64,-210 99,-241 97,-86 43,-61 86,-134 40,-67 21,11 46,-75 -47,23 -55,44 -78,85 -38,-3 -19,-1 -49,-21 10,64 5,5 -15,31 50,21 15,-13 37,49 -66,23 -67,42 -113,67l21 85 -69 30c-3,-7 -4,-15 -4,-14l-6 -19c-16,-30 2,-4 -18,-26 -37,-40 -71,-54 -127,-138 -59,-88 -180,-202 -295,-220 -62,-10 -96,-8 -151,-30l-115 -65c-52,-25 -63,-43 -60,-115l78 -40c28,-32 52,-45 92,-54l6 -81 89 -12 13 -69c68,39 23,0 76,66l78 5 34 -71c16,4 21,5 52,8l13 66 59 6c30,-28 13,-19 26,-36 23,-30 -4,-13 30,-28l24 47c13,27 2,30 49,42 20,5 110,7 138,9 13,45 -1,99 116,93 11,-25 10,-31 18,-53 15,-41 -5,-24 31,-41 31,15 16,-6 28,31 6,18 -8,19 9,47 25,43 43,9 80,27l18 -89 46 7c32,60 26,303 -2,368 136,58 95,20 111,70 -30,18 -86,-6 -156,0 -61,29 -124,171 -102,286l41 66c4,-154 -33,-212 67,-307 37,-5 110,-2 157,-3 25,0 250,105 416,148 94,25 184,79 214,161 36,96 25,226 70,319 220,457 79,411 42,742 -12,112 70,161 136,232 55,59 33,78 105,90 32,-19 10,-17 42,-6l0 -34c-405,-195 -205,-412 -179,-570 22,-133 0,-163 -8,-272l13 110c-53,-53 -25,-72 -64,-126 24,-20 -4,-7 26,-16l17 -1c-59,-142 -169,-185 -134,-400 51,-86 161,79 182,117l139 225c2,2 5,6 7,9l0 -64c-142,-154 -120,-255 -265,-357 -57,-40 -32,-11 -48,-62 141,-5 202,2 314,49l0 -57c-103,-5 -167,-34 -292,-28 -137,7 -96,-2 -237,-83 12,-8 4,-15 15,-17zm-6169 280c8,-5 -17,-17 28,-13 34,3 8,0 27,13 -23,37 -10,42 -55,0zm1117 -51c25,6 19,4 35,19 -57,-6 -19,-4 -35,-19zm-1686 -4c25,-1 38,-2 48,21 -17,33 0,1 -24,19l-25 -40zm1602 -59l70 -2 -28 73c-38,-20 -47,-22 -42,-71zm-1102 -23l48 100c-28,-17 -20,-9 -59,-8 7,-55 -18,-47 12,-92zm-283 35c20,9 38,41 53,55 47,47 52,50 69,41l3 55c-52,-55 -4,-28 -73,-48 -39,-12 -63,-22 -73,-66 44,29 7,16 57,39 -7,-43 -13,-54 -36,-77zm441 -31c33,19 22,3 59,17 -63,59 -49,35 -59,-17zm-617 -5c19,33 13,27 14,75l-29 -37c-3,-20 11,-33 16,-38zm2172 -24c33,21 28,20 50,50 -62,-6 -40,-1 -50,-50zm-2107 23c-29,15 -8,11 -32,-4 40,-18 25,-2 32,4zm441 9c9,-22 11,-33 32,-46 -14,30 -21,23 -32,46zm1791 -69c24,65 -27,22 17,78 86,111 106,57 149,19 2,-2 7,-5 10,-8 4,24 -9,2 15,26 -115,117 -142,-26 -249,-30 81,-78 -21,-71 59,-86zm176 -9c-10,35 -14,30 -18,74 -10,-19 -18,-26 -15,-41 5,-24 2,-26 32,-33zm-1989 -12c7,11 44,59 -7,46 -9,-2 -11,-13 -11,-16 0,-40 15,-26 18,-30zm-104 32c7,-4 -10,-39 66,22l-44 69c-68,-28 -96,-93 -28,-140 4,8 38,4 6,49zm-381 -61l30 74c-22,-10 -55,-41 -30,-74zm712 16c47,-1 62,7 39,50 -40,-24 -21,3 -39,-50zm-424 -40c-1,105 -65,94 33,175 44,37 26,37 94,30 19,42 22,49 46,82 -65,-46 -15,-39 -127,-57 -45,-7 -87,-44 -107,-74l-20 -66c-1,-2 -3,-5 -4,-7l-4 -28c3,-57 47,-59 88,-56zm-131 89l4 -76c12,13 8,56 -4,76zm3735 -9c-20,-27 -7,-19 -42,-28 -5,-1 -21,-2 -26,-3 -29,-7 -12,-1 -30,-13 17,-62 95,-61 133,-39l-36 83zm-3274 -8c-25,-86 -21,-147 78,-147 4,76 19,43 -24,89 -27,29 -23,45 -54,58zm3495 -229c12,-35 -8,-25 41,-42l-41 42zm-3431 -46c1,2 46,-8 0,53 -26,-37 -37,-38 0,-53zm5752 -11c50,48 41,93 0,163 -16,-11 -32,32 -8,-30 27,-70 -22,-90 8,-133zm-3612 -41l16 39 -60 -16c-18,63 -6,25 -25,45 -9,-42 14,-55 68,-68zm3446 8c84,98 -35,-31 59,132 -65,-12 -80,0 -98,-59 -20,-68 -4,-65 22,-109l21 13c1,1 5,5 5,7l-9 16zm-2045 5c15,-44 6,-40 57,-40 -21,34 -20,27 -57,40zm-160 -27c40,11 56,10 45,62l-23 -31c-14,-21 -7,-14 -22,-31zm2066 41l-11 -87c17,-7 -11,-19 84,-9 -35,125 -31,94 -73,96zm-1970 -99c47,20 29,7 37,42 -39,-19 -18,1 -37,-42zm-67 3c26,-23 -36,-15 14,-10 24,2 7,-2 23,10 -24,20 45,16 -15,10 -34,-3 2,9 -21,-10zm-2629 460l-21 -61c11,-12 -11,-16 33,-10 0,-199 -116,-204 -54,-250 12,-9 -6,-12 37,13 3,2 9,6 13,9 -3,-53 6,-35 4,-77 -1,-39 -11,-36 -18,-83 82,-74 43,-19 97,-93 16,25 23,52 34,79 -73,77 -85,101 -65,204 0,2 1,6 2,9l62 20 27 -65c0,0 50,27 -9,116 -19,29 -36,43 -68,49 -1,0 -4,0 -6,1 4,101 10,63 -26,159 -26,-12 -24,-9 -43,-19zm-825 -496c43,140 -106,276 -93,120 7,-86 9,0 24,-59 12,-45 -20,-76 69,-61zm3686 -51l57 41c-30,44 -22,39 -70,60 -4,-5 -37,3 1,-74 1,-3 14,-22 13,-26zm-97 -16c-12,29 -14,44 -30,70 -52,2 -131,-13 -124,-75 7,-59 39,-87 99,-99 6,11 3,5 11,17 48,71 -26,31 45,88zm-3584 30c-22,-19 -28,-54 -30,-81 -4,-58 10,-56 10,-57l47 -45c17,22 1,-18 25,40 10,24 8,26 12,49 -83,74 -34,38 -64,94zm3291 45c36,48 38,90 23,173 -18,99 -26,40 5,120 -211,66 -155,2 -276,-3 -74,-3 -226,-50 -273,-87 -69,-55 -50,-49 -143,-94 -8,-101 8,-212 6,-320 -1,-58 -6,-46 37,-90l632 8c17,39 16,87 13,150 -3,69 -17,69 -25,142zm96 -358l-635 -3c51,-28 358,-9 485,-11 27,0 60,-1 87,1l54 11c2,0 6,1 10,2zm-750 -66l615 1c56,0 50,-7 75,20 -52,-9 -91,11 -150,3l-176 -6c-89,-1 -309,7 -364,-19zm-663 594c-18,97 31,178 31,178 7,26 4,0 12,2 18,6 5,-1 24,10 0,85 6,34 -64,131 -23,31 -10,18 -36,36 1,-56 -5,-78 -39,-126 -47,3 -32,2 -69,15 21,-113 -22,17 15,-107 10,-34 10,-3 -1,-46 47,29 20,13 36,1l-14 -103c10,-50 4,-17 13,-27 -16,4 -81,31 -43,82 -45,1 -50,0 -76,-22 -9,24 -5,29 -25,42 -38,24 3,-1 -23,5l-18 4c-2,0 -7,2 -10,4 11,40 36,63 28,93 -19,73 12,-8 -41,54l-22 23c-18,-20 -39,-46 -10,-91 1,-1 4,-4 6,-5 -72,-63 -12,-36 -52,-99 -42,36 -101,130 -103,163 -2,29 6,32 1,79 -55,38 -65,28 -127,53 -58,23 -72,53 -122,77 -15,-77 -9,-136 -11,-222 -2,-116 0,-109 55,-180 -6,-48 -15,-113 -14,-180 0,-34 12,-161 8,-173l-67 -129c-21,-43 -17,-89 -7,-153 87,-22 322,-13 372,5 54,20 25,7 34,54 1,3 2,7 2,10 25,132 -17,186 7,266 -34,11 -20,7 -49,28 36,6 12,4 44,-6 -24,39 34,159 -7,291l71 22c-44,-103 -28,-685 -12,-717 55,-109 247,-54 341,-30l11 471c-6,54 -10,34 -33,74 44,17 30,10 62,40l-9 85 91 93c-8,63 -14,46 -1,109 -15,10 -31,23 -51,34l-110 -220zm834 -636c176,-6 347,-22 501,5 -61,-25 -387,36 -501,-5zm295 -61c43,-21 145,-5 166,5 -36,2 -136,9 -166,-5zm-2409 -97c22,82 -7,173 7,257 -45,-12 -30,-2 -57,-30 20,71 51,-52 60,260 2,56 0,146 -4,206l-2 147c0,2 -2,6 -3,8 -30,10 -32,0 -57,-20 -101,2 -187,17 -257,79 -70,63 -71,156 -215,161 -2,-3 -5,-11 -5,-9 -8,23 -8,-16 -9,-19 -12,-22 3,-3 -15,-27 -1,-1 -35,-34 -39,-39 14,-293 -6,-516 -2,-794 1,-72 -26,-142 30,-180 71,-49 517,-29 569,-1zm2209 22c145,-3 150,13 150,13 39,25 51,15 138,15 -83,26 -239,28 -324,14 84,-11 18,-10 36,-42zm-908 13l-176 -15c79,-8 118,14 176,15zm-854 8c4,-1 9,-5 11,-2l126 -10c54,0 121,0 166,7 -106,8 -230,50 -303,5zm1481 -33l72 -8c-24,40 -29,11 5,45l-77 -36zm1 -41c61,-13 134,-38 182,2l-182 -2zm-727 3c-20,9 -63,18 -90,19 -24,-34 -21,-43 -14,-66l45 21c4,1 8,2 13,4 39,13 20,-1 46,22zm2315 -27l-27 -15c8,-35 -4,-17 25,-43 32,53 14,39 2,58zm0 0c8,8 10,28 49,21 16,-55 5,-47 -23,-99 61,-16 81,-4 142,6l-10 459 -181 -11c-35,-10 -15,-156 -12,-196 9,-106 17,-53 1,-170l34 -11zm-2950 -67c13,-12 408,-22 465,-21 -16,19 -46,17 -78,19 -46,2 -61,-12 -121,-9 -87,4 -163,23 -267,11zm1369 -21c-1,-42 -11,-7 8,-39 50,-83 87,-99 191,-81 87,15 185,19 279,58 0,105 -86,79 -154,71l-324 -9zm-83 -63l35 28c11,193 29,179 -11,202l-21 -64c-50,64 2,101 2,101l26 16c37,22 -9,156 16,211l-148 4c-12,-128 1,-388 1,-391 -5,-33 -15,-39 -15,-57 -1,-45 11,-34 41,-48 -3,44 -3,45 15,78 61,-49 -25,-46 59,-81zm-2439 60c119,28 91,-23 105,-85 17,-73 -2,-16 25,-44 88,83 -63,170 190,108 -7,-34 -13,-47 -6,-97l57 21c10,150 50,73 141,100 -5,-16 -3,-4 -1,-30l2 -26c1,-13 2,-23 1,-35 0,-3 -3,-19 -4,-23l48 7c3,131 52,80 37,143 -15,61 -34,43 -103,32l-221 0c-185,-13 -259,18 -349,22 -4,-93 -41,-194 53,-200l18 97c1,-2 5,6 7,9zm2554 -298c13,-12 6,-9 29,-17l88 -10c405,-2 337,50 333,167 -51,0 -86,-10 -125,-17 -109,-20 -275,-4 -334,-28l8 -95zm-1196 75c-78,2 -71,17 -128,-15 25,2 61,8 83,9 34,2 25,-14 45,6zm1921 635c-16,-104 -108,-206 -109,-335 -75,-72 -58,-43 -95,-55 -59,-21 -42,-61 -40,-140 4,-143 12,-97 16,-140 3,-35 0,13 -5,-40 -12,-147 70,-178 196,-191 217,-22 150,-9 223,29 30,-48 21,-39 93,-38 367,8 582,-27 564,255 -4,59 -3,34 8,99 -175,194 -127,136 -87,222 -32,69 -22,25 -61,69 21,14 -21,18 55,-8 -1,70 -17,158 3,226 -45,-19 -3,-19 -65,-23 -10,19 -15,65 -15,96l23 89c65,0 70,22 102,49 -3,61 -4,118 -27,152 -178,-36 -212,-51 -389,25 -87,-67 -18,-87 -179,-94 -15,-43 -9,-78 -51,-101 -54,-30 -100,-30 -144,4 -6,52 -4,56 14,104l-67 -8c-26,-166 53,-163 65,-196 19,-56 -28,-48 -29,-48zm-728 -947c46,-31 119,-24 202,-17 81,7 155,8 236,5 -21,59 -19,13 -30,81 38,51 69,26 47,125 -61,0 -71,-9 -113,-12l-344 -5 3 -177zm501 7c57,-36 138,-33 226,-29 -100,-2 -134,21 -226,29zm-503 -66c21,-79 58,-56 130,-48 197,24 180,5 292,12 201,13 108,-24 144,25 -235,9 -282,40 -565,10zm1222 -48c-16,-11 -2,-10 -31,-17l-401 -3c95,-82 371,41 465,-44 -120,-36 -320,6 -436,-17 82,-3 90,-21 137,-24 45,-3 79,11 138,11 58,0 93,10 153,12 102,4 47,11 103,30 -7,0 -44,-1 -48,0 -48,14 -3,-5 -37,31l-40 10c59,58 199,29 233,79 -19,-11 -95,-36 -123,-16l-11 7c0,-1 1,-2 2,-3l-65 0c-70,24 81,21 -167,29 -57,2 -118,0 -176,-1 56,-24 190,-2 273,5 2,-3 5,-9 6,-11 1,-1 4,-7 5,-9 1,-1 3,-5 4,-6l51 -34c-258,-11 -400,13 -628,12 15,-2 23,-8 49,-16 107,-32 413,10 544,-28zm-285 -237c8,-1 4,12 33,-27l157 18 -190 9zm-1657 -22c73,-21 162,-28 258,-29 107,-1 166,21 246,28l-504 1zm1410 185c-6,-44 4,-353 20,-385l149 10 -2 241 -77 72c-29,32 -40,53 -90,62zm-1096 -340c65,1 101,25 145,39l-304 -13c9,-29 121,-26 160,-26zm-1110 1244l-44 41c-20,26 -14,16 -28,42 41,104 98,3 112,110 24,180 -74,184 -84,265 37,21 -12,19 60,9l9 57c0,0 47,20 -7,-61 55,-13 28,-12 95,-4l1 143c-39,38 -20,-11 -44,51 43,57 46,-15 46,80l-123 3 2 -213c-35,36 -15,60 -22,174 -6,102 47,107 92,177 0,30 -2,50 -5,80 -4,41 -2,18 3,60 5,48 2,103 5,155l-44 39c33,35 28,11 18,62l-72 7 -43 -49 66 -12c-136,-51 -34,-37 -122,-93 8,-117 23,-71 -17,-180 -26,-71 6,-109 2,-159 -5,-76 -36,-69 -41,-175 -5,-95 -29,-90 -24,-185l-85 1c40,-102 21,-35 66,-83l-41 -28c-33,16 -5,-21 -39,32 -36,55 -6,108 -10,149 -2,17 -24,63 -29,89 -8,41 -5,77 -9,118 -47,6 -56,19 -59,-30l10 -301c5,-77 -9,-88 -10,-180 -2,-189 34,-844 -3,-944 9,-15 3,-8 15,-23l118 -112c-13,-52 -22,-35 -15,-76 9,-59 1,-150 73,-223l42 52 64 -11c3,-12 23,24 3,-31 -16,-42 -58,-28 -63,-40 -2,-5 -7,-4 -10,-6 222,-21 505,-21 724,3 18,43 -18,23 32,70 0,0 98,41 89,-70 44,16 80,42 92,106 -39,47 -59,40 -96,79 -54,-14 -10,-16 -66,-5l24 40 -42 29c26,106 34,84 41,123 13,81 -19,4 7,116 12,50 -10,145 -10,145 -1,37 0,-6 12,35 -31,48 -71,70 -155,57 -2,-54 19,-123 2,-183 -39,-25 -21,3 -74,-20 -23,79 -10,107 -4,195 -37,0 -155,-26 -194,12 -26,27 -48,286 -139,361 -7,-11 -1,9 -11,-29 -21,-86 21,64 -3,-25 -9,-32 -1,-17 -20,-36 -33,37 -21,125 -19,216zm661 -1287c32,-18 86,-27 113,-5 -25,35 -1,21 -44,17l-69 -12zm-102 5c26,-21 7,-23 53,-26 26,-2 35,14 37,15 -45,12 -48,18 -89,11zm-5 -13c2,-3 5,9 8,15l-100 -16c44,-43 5,-27 64,-48l28 50zm-577 -9c87,-2 74,-23 105,-65l68 -3c35,34 92,82 141,12l55 15c16,11 6,12 35,31 10,7 25,13 35,18l-557 15c-44,2 -53,-6 -79,-6 -46,1 -10,19 -70,-6 51,-37 79,-9 130,-37 54,-30 -26,-13 49,-22l21 -3c3,0 20,-5 25,-6 23,49 0,24 44,56zm-498 -62c50,-21 150,-11 187,4 16,58 8,152 -3,202 -3,15 15,151 10,209 -63,21 -150,4 -203,-8 0,-92 -17,-342 10,-407zm63 -92c24,-30 -8,-16 29,-17 13,0 33,12 33,12l-62 5zm48 -383c65,-19 7,-38 204,-68 43,-7 99,3 119,2 37,-1 77,-17 114,-17l110 -1c46,-3 96,2 141,-1 65,-4 145,-12 227,10 -85,23 -369,-7 -489,11 -60,9 -158,18 -225,26 -112,13 -141,38 -199,38zm746 -130c49,-13 250,9 276,37 22,3 10,-12 -3,23 -24,-39 21,-17 -56,-36 -130,-31 -170,2 -218,-24zm-513 -21c73,3 475,-50 597,-15l-236 4c57,51 53,10 129,37l-533 20c29,-8 70,-18 107,-19 100,-4 74,14 120,-27l-183 -1zm-25 -15c26,-30 99,-52 139,-33 -41,14 -88,12 -139,33zm221 -40c89,-2 135,-15 230,-16 53,0 202,15 213,12l-443 4zm198 -44l-118 5c8,-33 111,-12 118,-5zm-167 9c-36,16 -85,9 -118,-3 25,-16 95,-29 118,3zm-75 -121c14,-1 219,-92 403,-4 -46,24 -172,-33 -322,3 3,3 8,6 10,8l16 21c1,3 -9,31 -9,27l311 7c-25,-29 38,-42 -44,-30 78,7 -12,-8 93,42l-392 -28c-72,6 -51,24 -120,27l74 -39c-13,-39 18,-32 -20,-32zm132 -118c124,-29 91,-3 173,7 -27,2 -49,-1 -73,0 -83,2 -57,10 -78,30 36,-1 88,-5 121,-3 52,3 51,16 70,12l-229 0 16 -46z"/> <path class="fil5" d="M1568 10334c28,-24 62,-40 99,-46l-8 -16c33,-17 34,-11 58,-42l9 -15c46,-60 -57,42 19,-21 24,-3 16,-6 42,-5 4,0 20,2 24,3l18 9 27 -15c58,4 7,-3 25,16 39,-23 32,-15 100,-15l-30 42c44,-7 15,2 25,-21l45 20c-31,-32 -10,-4 -26,-42 55,-3 77,-9 121,-12 96,-6 65,-27 102,27 -122,4 -77,-35 -125,14 84,45 -7,-25 54,4 23,11 14,-8 15,46 0,1 0,4 0,5 3,-3 20,-20 20,-20 3,-4 20,-23 21,-24 38,13 29,9 76,-2 -16,25 -17,27 -32,44l108 -67c-32,-17 -25,-7 -65,-1l9 -47c43,-11 47,-14 98,-24 20,19 7,-3 12,28 38,-34 2,-28 72,-37 149,-20 88,11 147,86 29,37 7,-3 25,36l21 0c7,-2 14,-5 21,-7l-1 0c-67,6 -40,-21 -40,-21l90 -23c2,0 6,0 8,-1 4,0 14,-1 18,-1 11,-1 21,-2 29,-3 38,-17 78,-32 119,-44 3,-2 6,-4 9,-5 -15,-6 -30,-22 -58,-29 24,-54 2,-58 70,-64l73 -8c22,-8 7,-9 49,-10 43,-1 37,-10 125,-33l899 -230c57,-15 141,-18 175,-45 39,34 5,13 42,24 6,-63 -14,-24 58,-36 28,-5 17,-20 62,-27 111,-16 102,-46 139,-13 19,-42 13,-31 66,-44l139 -38c53,-9 27,-22 61,12 15,-48 -37,-10 34,-45 32,-16 80,-31 107,-6 5,-51 -17,-23 40,-40 105,-31 77,-9 119,-24l219 -70c228,-71 179,-33 364,-120l531 -166c293,-103 508,-164 819,-248l214 -51c26,-12 17,-14 27,-11l18 20c12,-48 -18,-18 25,-37 3,2 7,6 8,7 36,25 -21,34 24,10 20,-11 13,-12 19,-36 55,13 40,17 68,2l95 -35c27,-8 -29,10 20,-4 70,-19 36,-32 86,-9 21,-71 48,-22 111,-66 35,18 10,7 52,-7l234 -46c86,-52 49,-7 114,-26l365 -85c54,-11 140,-58 251,-30 10,-8 -5,-39 33,-8 1,0 32,-7 -9,31l46 79c-34,-18 -39,-24 -63,-44 -24,53 -3,5 -9,32 -7,34 11,3 -14,31 -52,-37 -30,-11 -31,-57 0,-2 0,-6 0,-8 2,-47 0,-22 15,-43 -69,27 -26,17 -29,33l-1 15c0,1 -3,4 -3,5 -1,2 -8,4 -12,5 26,23 6,11 42,25 -26,41 13,26 -16,34l11 0c21,-4 42,-7 63,-9 1,-1 6,-3 -6,-26 41,13 42,9 51,22 8,-1 16,-1 23,-1 3,-1 7,-2 10,-2l2 -3c35,-25 7,-11 52,-10l1 2c9,-2 17,-3 26,-4 2,-1 4,-1 7,-2 -12,-23 -37,-47 -48,-59 58,-29 -3,4 40,-7 44,-11 79,-55 104,-99 22,8 25,10 49,19l20 -23 6 26c2,-2 5,-6 7,-7l23 -23c75,2 90,-14 104,10 7,11 5,28 16,54 0,1 14,22 20,33 27,-6 32,-17 68,5l-1 18 24 0 -7 7c3,1 5,5 -4,4l1 -1c0,1 1,3 2,5 30,-19 66,-30 105,-30l6 0c5,-7 14,-16 26,-28 27,19 9,-1 27,21 3,3 4,5 6,7l26 0 1 -1c48,-37 -22,5 19,-7 -18,-25 -21,-19 -10,-46 32,24 39,38 56,54l117 0c-9,-27 6,-18 8,-39 1,-6 5,-7 7,-11 -73,-13 -1,11 -94,-63 58,-42 43,-22 63,-21 52,2 14,-10 50,4l59 16c35,7 24,-10 38,38 -54,20 -26,-1 -49,84 7,2 15,5 22,8 4,-3 9,-8 14,-13 11,11 19,18 24,25l11 0c26,0 52,5 77,15 4,0 8,1 11,1 -43,-26 -48,-22 -68,-72 26,12 32,29 72,1 -61,-29 -55,-15 -98,-6 -7,-15 -10,-29 -15,-44 47,-21 21,-19 67,6l17 -72c37,46 40,-1 10,65 27,-10 16,-6 44,-11 -29,47 -11,9 -9,56 2,51 -19,-2 13,54 45,22 -1,7 50,28 1,2 4,14 6,21 9,0 17,1 26,2l-32 -24c21,-23 7,-16 64,19 18,-21 -3,-16 30,-27 19,-7 24,1 45,21 -42,26 -17,31 -70,10 1,4 3,8 4,11 12,5 25,11 36,18 13,3 26,6 39,12 5,0 10,1 15,2 39,-10 80,-18 121,-23 -7,-7 -15,-16 -30,-27l17 -19c42,-43 31,-20 13,-68 29,-12 14,-5 34,-22 22,-19 2,-5 20,-20 2,6 2,2 4,18 3,44 -7,35 -15,73 32,-14 24,-11 53,-24 19,44 12,28 50,64l14 17 486 0c28,0 57,1 85,4 -1,-2 -1,-3 -2,-5 6,3 10,5 14,6 69,7 137,21 203,41 111,21 219,60 319,119 29,12 58,26 86,41 29,13 57,28 85,44 59,25 116,56 168,91 10,4 21,7 31,11 57,16 113,38 167,64 19,6 37,12 56,19 -1,-7 -2,-18 -4,-32l21 6 0 -71 -29 -19 29 -11 0 -235c-55,1 -51,7 -95,6 -40,-1 -38,-1 -71,1 -110,5 -340,-66 -452,-109 -2,-1 -6,-1 -7,-2 -24,-9 -10,14 -24,-15l361 -10c16,-1 44,2 61,1 22,-1 165,-50 227,-54l0 -145c-54,97 -15,67 -138,119 -3,1 -6,3 -9,4 -43,15 -70,5 -93,10 -70,17 -135,30 -217,2 -39,-13 -58,-11 -98,-43 -56,-44 -179,-80 -204,-128 -16,-31 9,-13 -26,-58 -17,-23 -24,-24 -49,-35l-3 55c52,24 51,55 80,103 16,26 32,34 47,50 5,5 21,32 22,33 17,54 2,8 -4,27 -44,17 -53,19 -87,-19l-57 -57c-48,-38 -92,-120 -94,-133 -1,-7 -6,-7 -10,-11 -3,106 -7,87 47,158 -4,27 -12,58 -11,62 -63,-18 -217,2 -153,-118l74 88c3,-57 -35,-97 -47,-171 -44,-267 32,-398 -228,-687 -40,-44 -67,-66 -113,-109 -24,-22 -33,-39 -55,-57 -19,-16 -50,-30 -68,-44 -50,-38 -65,-58 -128,-83 4,64 72,50 169,153 21,22 29,31 56,57 91,88 145,121 215,230 69,108 101,186 99,319 -2,112 26,245 -29,362 -107,24 -262,-25 -305,-99 -31,-53 -7,-113 -57,-165 -63,-65 -10,27 -90,-119 -73,-133 -408,-243 -563,-285 -106,-29 -341,-62 -419,-122l-221 -100c-143,-37 -193,-24 -333,-98 -69,-37 -185,-145 -212,-188 2,54 54,103 97,137l87 65c191,103 128,45 359,197 70,45 374,159 495,129 166,-41 362,109 468,158 166,76 65,79 138,164l-12 -108c107,6 86,110 159,173 48,41 47,32 59,107 12,74 22,47 41,111l-83 -1c-65,-145 -2,-36 -163,-188 -6,58 9,56 50,82 78,50 37,78 35,85 -25,7 -523,-40 -614,-46 -213,-13 -444,13 -609,8 -174,-6 -593,70 -770,98 -179,29 -125,25 -247,-50 0,-173 79,-72 -5,-319 -9,-26 -3,-27 -19,-48 -22,-28 -23,-18 -33,-24 25,82 36,68 52,133 11,44 14,91 24,146 -46,34 -64,40 -41,96 -91,-22 -75,37 -123,119 -29,49 -267,79 -406,122 -69,21 -46,2 -84,12 -54,14 -15,36 -90,6 -39,63 -201,97 -288,117 -45,10 -106,28 -150,44 -82,30 -82,24 -151,-1l-34 -197 -27 40c-16,-51 1,-131 23,-182 12,-26 11,-9 25,-45 95,-229 52,-101 105,-188l-64 -9c-59,-215 95,-415 176,-557l114 -135c24,-23 39,-43 59,-66 -54,2 -106,61 -184,108 38,13 24,3 43,44 -87,60 -133,171 -191,267 -39,65 -35,100 -54,168 -56,201 100,173 -25,352l-35 74c-47,106 -37,123 -13,217l13 88c-12,63 -20,8 -30,71 -77,0 -97,21 -151,54l-416 144c-22,-26 -38,-42 -63,-61l8 -77c-71,31 -6,6 -93,89l26 93 -74 22 -6 -64 -98 67c-134,67 -8,36 -246,116 -46,15 -94,25 -139,42 -22,8 -48,21 -61,26 -20,8 -6,8 -29,9 -33,1 -39,-11 -30,-42l41 -85c47,-117 15,-151 82,-279 26,-50 48,-55 64,-103 -41,22 -56,39 -83,84 -68,113 -73,117 -63,186 12,90 -85,234 -134,270l-36 -33c-81,81 -69,67 -185,103l-596 170c-70,16 -30,2 -44,-6 -25,-25 -8,-100 0,-139l-62 112c27,40 15,0 21,55l-236 69 -20 -53c-26,84 -68,79 -144,96l-273 61c-22,7 -61,26 -90,35 -65,20 -136,31 -201,45 20,-48 77,-61 51,-172 -17,-71 -59,-70 -129,-63 1,-5 4,-39 4,-39 0,-2 1,-6 2,-8 11,-36 21,-92 -5,-145 -8,49 0,58 -18,85 -30,-32 -65,-61 -92,-106 -60,-8 -68,-21 -113,-29 -14,-2 -41,-2 -46,-3l-8 -16c8,-53 1,-15 13,-62l17 -10c59,-119 -45,-205 33,-373 67,-146 18,-72 116,-174 65,-68 -8,-62 152,-169l88 -78c67,-24 176,-121 218,-182 28,-41 -15,-20 108,-145 112,-115 249,-90 285,-102l140 -126 -126 28c-17,39 10,6 3,46 -47,29 -36,15 -48,11 -3,-29 11,-19 13,-34 1,-5 5,-6 7,-9 -66,21 -61,44 -113,69 -46,22 -73,20 -117,49 11,-57 84,-140 142,-164 87,-36 34,4 107,-58 59,-50 41,9 73,-77l33 -1c16,31 20,26 5,67 46,-8 132,-34 146,-34 39,-1 76,22 141,15 -21,-27 15,-9 -43,-36 -15,-7 -34,-12 -50,-16 -60,-16 -50,-6 -104,4 -26,-24 -39,-44 -55,-67 8,-63 25,-168 44,-220 36,-102 254,-369 343,-418 -105,3 -95,23 -146,87 -38,47 -63,80 -97,125 -29,38 -75,96 -97,138 -36,66 -35,91 -56,166 -87,303 -274,232 -435,482 -45,70 -46,71 -120,116 -92,57 -193,115 -258,201 -40,53 -53,65 -92,130 -58,97 -169,153 -231,227 -78,93 -76,230 -174,284 -56,-45 -26,-65 -57,-139 -22,-53 -39,-77 -61,-133 -54,-132 -196,-156 -243,-142 -50,36 -53,30 -104,88 -79,90 3,74 -63,188l-65 -6c26,-14 58,-34 80,-48 -90,2 -123,54 -164,112 -79,111 -15,106 -39,185 47,4 23,-5 57,-1 53,8 36,13 47,20 -86,14 -45,-1 -96,2 -53,2 -47,30 -66,57 -103,145 -22,89 -126,125 52,34 20,0 35,39 -18,11 -24,15 -32,21l-20 22c-34,-32 -23,18 -13,-51l-68 3c-26,-76 -86,-110 -183,-97 -93,13 -117,64 -161,118 -91,112 -305,64 -451,50l0 35c171,24 278,31 429,8l-4 127c-75,50 -125,24 -209,3 -79,-20 -137,-26 -216,-52l0 34c31,13 34,7 66,17 68,21 23,25 192,58 58,12 248,39 262,77 13,36 25,75 8,112l-69 14 -26 -59c-83,-1 -37,-6 -100,-26 -51,15 -96,39 -121,88 -32,63 -20,97 -23,170 18,2 -10,6 -16,36 -3,19 8,52 10,81 -25,15 15,1 -28,17 -48,18 -99,8 -156,11l0 51c9,4 6,2 22,12 24,15 3,9 33,19l16 -35 56 10 -11 56c-7,32 -14,24 -36,53l75 -6zm718 -48c12,1 24,3 36,6 5,-3 10,-5 15,-7 6,-4 12,-7 18,-10 -23,3 -46,6 -69,10zm241 -42c2,0 4,-1 6,-1 -1,0 -2,-1 -3,-2 16,-13 6,-8 33,-13 -3,9 2,12 4,14l33 0c-10,-1 -19,-5 -37,-14 22,-59 32,-28 -11,-72 -16,48 22,3 -20,45l-35 -42c-18,20 -15,16 -27,42 -58,-14 -29,-16 -85,0 29,55 -5,10 51,18 22,3 58,15 98,20 -2,1 -4,3 -6,4zm452 -133l5 -2c-1,-1 -1,-2 -1,-2 -1,1 -2,3 -4,4zm6277 -1597l12 0 0 -3c-32,-13 -28,-9 -53,-41 60,-8 30,-17 74,23 5,12 8,18 12,21l-8 0c-3,-4 -8,-11 -4,-21 -56,-17 -16,-12 -33,21zm129 25l-17 17 0 0c5,-5 11,-10 17,-15l0 -2zm434 -39c1,0 3,0 4,0l-6 -5c1,2 1,3 2,4zm-8180 1728l3 -22c14,9 8,13 18,29l-21 -7zm0 0l-5 24c-40,-16 -20,-18 -51,-7 -2,1 -8,4 -10,4 -2,1 -7,3 -11,4l-23 -25c24,-20 -30,-16 48,-19 23,-1 21,5 52,18zm1162 -123l29 6c-21,19 34,43 -16,14 -28,-17 -1,17 -13,-19zm-887 25c-44,18 -45,8 -88,7 32,-32 -31,-22 45,-21 50,0 28,3 43,14zm887 -25l-37 20c-3,1 -8,4 -11,7l-15 -27c9,36 31,51 -18,65l-37 -2c-33,-3 -18,5 -49,-11 7,-23 14,-42 32,-55 11,-7 18,-7 28,-9 2,0 7,1 9,0l20 -4c52,-21 11,-18 107,-25l-27 42zm-299 -44c1,-7 25,-33 15,-1 -5,18 -16,15 -15,1zm146 -29c-4,2 19,25 -22,8 -34,-14 -8,4 -19,-26 36,4 12,-9 42,18zm-395 -34c46,4 18,-4 34,21 -39,-18 -5,3 -34,-21zm-397 -33c-22,37 -9,34 -53,51 12,16 -1,5 22,31l-13 13c-26,18 -3,3 -29,16l36 60c-44,-17 -45,-7 -51,-47l20 -112c19,-17 14,-12 67,-13zm1158 6c22,-41 15,-24 24,-65 35,19 30,13 47,58l-71 7zm-879 -21c-3,51 84,126 167,87 2,2 5,3 6,7 4,16 31,8 48,57 -137,2 -143,19 -196,-36l-68 0 -8 45c-57,13 -54,27 -134,34 10,-10 76,-69 86,-87 23,-42 5,-60 -20,-101l33 -19c37,56 29,75 86,122 -2,-18 -3,-51 -9,-68 -9,-25 -14,-18 -29,-52l30 8c2,1 6,2 9,4zm0 0l41 -31c24,36 -28,14 58,70 -45,14 -36,8 -74,-22 -24,-19 -10,-8 -24,-17zm513 82c50,-45 134,-43 137,-46 30,-21 0,13 12,-22 -36,-12 -11,8 -23,-29 -53,11 -14,10 -29,-20l30 -6c2,-4 4,-13 5,-11 1,2 4,-8 5,-10 1,-2 13,-24 14,-24 60,1 41,42 40,66l4 59c1,2 3,6 3,7l6 15c-42,5 -74,5 -99,10 -23,4 -62,12 -105,9zm-792 -67c-7,-22 -8,-27 -9,-55 30,-30 20,-28 78,-26 -7,61 -21,16 -35,87l-33 -6zm338 -99c-22,29 11,16 -39,23 17,-18 10,-11 39,-23zm290 -2c-17,27 -10,23 -42,48 7,44 4,10 6,43l-32 -23c-1,-18 14,-22 6,-60l62 -9zm-514 -10c36,13 37,14 51,51 -64,-20 -27,-12 -51,-51zm1053 -62c82,8 71,-21 83,60 9,62 19,58 50,90l-55 5c-76,-116 -61,-130 -78,-155zm-951 -23c-4,-18 13,-5 12,2 -1,27 -12,2 -12,-2zm1371 -83c-3,-31 19,-12 17,1 -3,26 -16,10 -17,-1zm-942 -28c55,15 16,-7 37,30 -47,-8 -9,3 -37,-30zm763 69c83,93 36,17 121,58 -16,40 -18,12 -37,81 3,-4 -11,-41 64,0 -23,37 -9,17 -55,28 -85,20 -179,66 -222,-35 -22,-52 54,-55 97,-164 21,-54 34,-45 53,-49 -16,42 -2,2 -11,39 -6,25 -3,24 -10,42zm-1073 -84l32 9c-20,29 5,13 -29,20l-4 -29zm1 -24l-1 24 -62 -7c-3,-1 -7,-5 -11,-7 42,-45 11,-34 73,-10zm-299 10c1,-7 29,-39 15,-1 -6,18 -17,17 -15,1zm299 -10c-11,-22 -8,-27 -11,-45 32,23 24,25 37,51l-26 -6zm267 -49l-32 -2c37,-33 -36,-32 18,-15 47,15 1,-20 14,17zm842 -54l113 -18c3,5 8,24 9,27 9,30 -3,-8 20,38 29,60 -25,-5 20,74 -61,3 -36,-34 -93,-55 -31,-11 -76,2 -122,4 20,-52 -13,-126 52,-162 -10,31 -18,26 -13,48l9 19c2,6 -3,2 5,25zm-747 -93c35,7 17,-6 30,26 -32,-15 -8,8 -30,-26zm-26 -71l28 24c-45,-12 -16,13 -28,-24zm-188 2l17 -13c2,-2 12,-10 15,-13 17,18 27,26 39,52 4,-2 9,-9 11,-6l34 -20c35,47 162,118 44,263 -21,26 0,-13 -20,23 -14,26 -10,32 -16,68 -49,23 -63,37 -91,77l-79 88c3,-24 23,-68 -2,-121l-48 14c-15,28 -18,25 -38,42 -38,-53 -8,-54 -24,-101l14 -35 49 44 1 26 8 -97 33 26c28,-67 57,-23 33,-150l26 -15c12,33 -11,11 17,42l10 -26c27,16 6,-6 16,26l25 8 -22 19c6,29 16,28 35,32 8,1 22,-4 51,4 -38,-25 -11,6 -18,-40l24 -13c6,-3 6,-5 20,-7 -11,-62 -31,-8 5,-76 -31,-5 -12,13 -17,-18 -4,1 -11,-2 -13,3l-58 2c-2,0 -20,10 -32,13l-4 -66 -42 -1c12,-25 10,20 -2,-54zm-318 26c27,-23 12,-29 42,-22 37,8 24,23 32,46l-44 -11c-30,-8 -11,2 -30,-14zm295 142c-95,-16 -26,-27 -103,-22 5,-14 11,-33 11,-36 -1,-15 -1,-8 -11,-26 -26,5 -11,1 -34,14 -51,30 -28,1 -60,12 -38,14 -66,60 -95,98 -44,61 5,18 -65,60 -22,-23 -21,-16 -37,-48l-21 -11c28,-57 -2,-22 13,-62 11,-29 31,-40 58,-50 -11,-30 -4,-22 -19,-44l68 -28 -21 21c37,22 0,-15 39,37l38 -5c115,5 8,-51 109,-11 -34,-38 -12,-11 -29,-50l159 149zm382 -183c42,-48 30,-46 77,0l-52 7c-39,-5 0,8 -25,-7zm-172 14c-73,-35 3,-28 -81,-34 18,-19 9,-8 22,-34 2,2 6,2 7,6l22 18c37,36 14,3 30,43zm38 -9c-5,1 -13,-8 -13,-4 -1,3 -6,-5 -9,-7 -1,-33 8,-33 23,-45 16,51 8,44 0,55zm570 -185c78,90 36,42 37,83 1,45 13,-28 5,40 -7,58 23,55 66,66 -28,19 -28,18 -67,30 -82,-55 -95,-129 -41,-220zm-648 13c-11,-18 20,32 0,0zm648 -13c11,-27 -7,-19 19,-20 -3,22 4,9 -19,20zm220 97c-23,17 -5,9 -22,15 -39,14 -17,-167 -5,-191 41,15 15,-13 26,34 22,99 -31,44 1,142zm2808 -181l70 -6c-22,34 8,6 -22,27 -20,15 -18,6 -39,11l-9 -33zm-3608 6c-57,-7 -22,-12 -25,-25 3,3 22,22 25,25zm286 -19c20,-38 -1,-13 43,-39l45 115c0,15 -2,63 -2,75 -2,32 19,-20 -4,25 -22,43 4,-4 -24,34 15,7 37,13 45,17l15 8c95,49 27,-8 113,36 68,35 48,14 55,46 0,1 -1,5 -2,8 -69,34 -23,-18 -103,-41 -97,71 -9,59 -64,123 -1,1 -5,4 -7,6 4,3 9,1 11,7 13,42 18,-13 38,37 -30,18 -23,11 -54,35 24,86 -33,13 -25,109 -30,-45 -33,-44 -89,-53l-33 34 -2 24 -24 2c-2,4 -10,18 -10,21l1 97c9,80 18,16 34,77 -48,21 -52,31 -67,72 -89,-25 -10,-22 -79,0 -29,-80 4,-48 -17,-83 -12,-20 -42,-37 -56,-57 -83,32 -34,27 -95,67 7,-22 19,-41 13,-72 -4,-21 -6,-19 -10,-28l-39 -9c74,-28 8,-23 138,-27 76,88 52,43 81,51 55,16 -10,44 25,101 50,-44 6,-37 51,-63 -48,-40 -9,3 -33,-99 17,11 20,12 39,22 -12,-48 -16,-19 1,-71 -44,-22 -50,-53 -93,-81l9 -13c1,-2 7,-7 7,-22 2,-45 -1,2 -12,-24l42 -51c46,24 18,21 72,29 10,-35 8,-18 -8,-60 64,22 90,107 142,43 12,-31 5,9 -1,-43 0,-3 -2,-25 -2,-29 -12,-45 -68,-80 -71,-84 -18,-23 1,6 -17,-30l27 -24c-68,-10 52,0 -27,-10 -25,-3 -5,12 -38,7 -3,0 -22,-12 -27,-13 -13,22 11,15 -25,28l-41 -5c-7,-16 -27,25 -7,-30 12,-32 14,-7 15,-7l-31 -28c9,-51 25,-55 24,-79 0,-4 -12,-30 -13,-32 31,13 21,6 52,25l-16 -50c85,22 76,1 104,0 -23,-40 -34,-50 -59,-88l62 -9c3,39 12,26 -12,30l38 39zm3574 -37c-40,2 -33,0 -43,-46 35,5 20,-11 44,13 43,41 -1,32 -1,33zm-3769 -11c21,-33 35,-31 70,-16l-70 16zm-90 29c26,-26 21,-36 67,-41 -76,17 8,34 -67,41zm259 -51c15,-37 -12,-4 15,-20 47,-29 -4,-4 16,6 -18,15 30,15 -31,14zm176 -54c29,3 70,2 84,29 17,32 -7,-1 3,55l6 21c9,43 2,96 -19,133 -34,61 -7,20 -34,32 38,44 38,28 53,79 -60,15 -30,-13 -106,16 15,-103 75,-71 66,-196 -3,-41 -6,-49 -11,-82 -7,-47 -23,-43 -43,-86zm46 -44c41,12 19,-13 49,44 -60,-18 -32,11 -49,-44zm4007 -76c20,-49 30,-71 67,-67 16,54 -9,56 -67,67zm4687 -48c-24,0 -12,1 -22,-24 35,22 15,8 22,24zm286 -4c-50,-28 -23,-6 -48,-43 46,25 22,-1 48,43zm-9104 31c6,-23 -7,-16 8,-26 26,14 24,-22 18,27l40 -23 72 66 -15 54 -27 -1c-19,25 33,27 -23,20 -37,-58 -10,-46 -84,-68 -70,-21 -143,-10 -165,52 -4,12 -3,59 3,78l-54 -12c19,-36 24,-20 14,-49 -28,-85 12,47 2,-62 16,-3 43,-7 55,-13l74 -33c21,-3 27,-4 25,-26 -25,-6 -59,9 -94,11 10,-23 18,-28 36,-48 55,16 38,-6 83,24 0,-4 0,-9 -1,-12l-5 -20c-1,-2 -3,-6 -4,-7 0,-1 -2,-4 -3,-5l-1 -45c60,23 10,32 74,45l-32 74zm8771 -166c-6,-25 9,3 10,6 7,20 -2,26 -10,-6zm-8424 453c5,-78 29,-78 61,-144 35,-73 15,-117 128,-246 73,-83 64,-70 82,-57 -35,16 -138,174 -152,223 -76,271 -71,175 -116,267 -18,-16 -38,-30 -53,-47l51 4zm8386 -445c-48,-52 22,22 -16,-14l-22 -22c45,16 32,7 38,36zm-272 -36c32,15 14,4 45,36l-45 -36zm94 -25c-101,0 -100,21 -138,-17l11 -17c2,-4 7,-15 12,-21 65,11 40,19 95,35 58,17 52,32 53,29 1,-3 5,6 8,8 -24,-24 -19,-17 -42,-16zm-381 -17c1,-11 0,-10 18,-2 16,7 -20,29 -18,2zm-762 6c1,-1 -33,0 27,-20l-19 22c-1,-2 -5,-2 -7,-2zm856 -47c15,-35 2,-6 17,-23l51 30c-55,-28 -11,-24 -68,-7zm-821 -41c-11,26 9,2 -14,28 -14,16 0,3 -25,11 35,-47 -11,-19 39,-39zm363 16c26,-18 41,-17 69,-2 -18,28 10,35 -39,25 -7,-1 -26,-20 -30,-23zm-1336 1c22,-29 -37,-24 30,-24 -11,43 21,44 -30,24zm-514 4c-54,-35 0,-38 0,-39 2,3 6,8 6,9l0 19c0,-2 -4,6 -6,10zm2806 -22c-43,-11 -16,9 -26,-37l26 37zm-2196 -53c47,13 16,-12 45,47 -62,-28 -33,-11 -45,-47zm-526 27c-3,-42 10,-31 19,-11 9,22 -19,16 -19,11zm-643 35c0,-85 34,-117 115,-121 42,46 43,5 58,79l-173 42zm2405 -55c-30,-2 -16,2 -19,-27 12,12 8,10 19,27zm-110 -23c23,13 6,-1 29,18 32,26 -3,-9 19,24 -42,-14 -28,-8 -48,-42zm-1223 16c-41,-10 -1,27 -18,-12 -15,-35 -23,31 12,-19l6 31zm1223 -16c-26,-7 -12,9 -26,-27l26 27zm-1126 17c-28,-8 -12,3 -31,-21l52 -16c-30,25 -7,2 -21,36zm-97 -1c2,-3 5,-7 5,-8l9 -27c0,-2 0,-4 1,-5l32 27 -32 49c-21,-21 -21,26 -16,-35zm1079 -24c-47,-17 -22,6 -45,-27 28,11 25,12 45,27zm-6703 53c-48,15 -75,50 -119,50 49,-99 197,-250 322,-295 -1,49 -72,121 -112,157l-63 59c-2,2 -6,5 -7,6l-19 22zm724 -696l-3 -73c39,22 45,33 37,80l-34 -7zm5048 -130c-112,-61 -81,-48 -88,-77 44,-16 70,15 113,37 42,21 92,28 135,46 47,20 62,47 118,61 83,21 71,-11 127,50 -108,7 -307,-64 -405,-117z"/> <path class="fil5" d="M6334 8231l54 -3c-4,158 49,172 73,302 32,172 -8,168 -34,308 90,-95 76,-203 149,-406l67 -100c78,-39 59,-16 133,-8 97,10 93,-29 101,-41 -85,24 -209,-20 -232,24 -1,2 -4,7 -5,9l-8 19c-31,60 -99,24 -99,24 -2,-4 -7,-4 -10,-6 -35,-106 95,-177 117,-305l34 -296c14,-51 19,-33 21,-97l-32 45c-21,34 -2,12 -27,30 -9,-9 -13,-7 -26,-33l-23 -116c-29,-109 -69,-97 -79,-100 9,55 25,119 42,164 27,76 18,94 36,154l17 -38c22,72 23,117 13,199 -36,289 -100,182 -128,313 -14,64 5,140 1,211 -39,-44 -20,-26 -45,-80 -96,-207 56,-281 101,-390 23,-57 44,-112 30,-166 -72,322 -182,303 -241,380z"/> <path class="fil5" d="M8033 7268c53,15 52,8 62,74 -60,-9 -49,-3 -62,-74zm353 699c-20,-77 -29,-24 -71,-94 -34,-56 -25,-47 -79,-73 -2,-110 -51,-242 -30,-319 -2,-1 -5,-3 -6,-3 -31,-11 -28,1 -51,-36 -63,-101 2,-124 47,-165 23,-21 40,-58 50,-67l10 84c4,-10 3,1 10,-33 43,-205 11,-101 135,-281 19,-28 4,-15 29,-39 39,-36 13,-13 43,-21l-3 -35c-117,43 -201,223 -241,285l-78 102c-68,27 -174,-78 -182,-141 0,-3 -5,-55 -5,-55 -2,21 -6,93 -4,112 2,24 16,63 17,101l15 -22 36 47c8,15 5,18 19,37 20,27 31,24 52,58 27,45 57,104 66,158 4,23 1,15 5,36 1,4 2,7 3,11l10 62c0,20 -5,92 -8,110 -1,5 -18,69 -24,84 -20,56 -15,21 -52,60 -46,48 -22,83 -97,140 -163,123 -123,183 -179,384 -7,25 -19,52 -27,86l45 -55c1,0 6,-1 6,-1l8 -2c34,-145 13,-270 133,-386 38,-37 78,-39 162,-172 94,-149 160,-5 237,45z"/> <path class="fil5" d="M5275 8021l-16 30c-50,5 -15,-35 -57,23l-143 233c-32,58 -67,85 -102,148 -169,311 -138,503 -239,797l-13 143c77,-112 93,-345 108,-446 17,-119 68,-341 135,-420 199,-235 79,-98 234,-350 45,-73 199,-153 260,-171 101,-29 61,-8 93,-46l-1 -23c-87,28 -122,64 -174,37 17,-29 27,-33 38,-63 -60,27 -81,57 -125,107z"/> <path class="fil5" d="M4649 7869c-12,24 -3,5 -13,28l-17 41c43,89 48,116 -5,201 -21,33 -27,61 -50,88 -39,46 -64,22 -73,79 67,-87 -13,39 90,-81l43 5 -4 -46c48,27 14,-5 45,47l26 15c351,-109 225,-206 427,-258l50 -73c45,-62 15,-85 80,-114 50,25 37,20 30,82 -8,75 -10,67 -30,125 19,30 -13,8 27,12 3,-26 4,-39 11,-55 13,-30 21,-29 35,-40 -24,-70 -17,-18 -7,-86 6,-42 2,-59 4,-96 3,-72 34,-93 41,-148 -28,22 -23,21 -42,50 -22,33 -19,26 -53,52 32,29 35,36 36,89l-87 -19c-29,87 -62,136 -138,195l-39 29c-54,40 -61,25 -81,39 -41,30 -40,65 -104,109 -110,77 -140,94 -197,17 71,-167 2,-160 4,-230l-8 -57z"/> <path class="fil5" d="M10763 7104c8,55 236,366 297,440 56,69 112,110 174,188 29,36 74,165 74,185 1,71 9,24 -29,46 16,10 25,15 42,24 -22,39 24,24 -22,29l36 34c-3,-54 -9,-107 -10,-136l33 27c0,-40 2,-36 -17,-76 -94,-196 -293,-315 -345,-533 -12,-49 -14,-117 -8,-181 3,-32 2,-33 7,-60 6,-29 17,-65 13,-97 -7,-63 -12,-30 -18,-39 -63,-97 14,64 -19,-27 -17,-47 4,-39 -13,-82 -28,54 49,378 0,481 -44,-5 -41,-15 -64,-45l-130 -177z"/> <path class="fil5" d="M5536 7963c70,-33 99,-66 117,-158 28,-139 40,-90 72,-192 75,-18 42,-22 82,-73 25,-32 57,-56 81,-69 65,-36 142,-43 220,-87 137,-78 98,-198 98,-334 0,-55 14,-92 12,-138 -2,2 -6,5 -7,6 -88,121 65,376 -136,460 -60,25 -125,21 -177,46 -84,41 -178,140 -225,220l-24 31c-37,48 -32,48 -50,113 -28,97 -66,99 -21,135l-43 39z"/> <path class="fil5" d="M4995 7661c41,-88 36,-98 105,-157 35,-30 90,-93 120,-146l-38 -39c-26,42 -60,101 -80,142 -52,107 -23,19 -97,111 -131,163 -148,70 -248,189 86,29 60,-23 156,-71l63 60c34,43 -13,229 -9,261 7,-7 10,-4 22,-25 2,-3 3,-7 5,-10 21,-42 33,-225 33,-233 -3,-53 -13,-34 -31,-84z"/> <path class="fil5" d="M5400 7914c110,-56 116,-232 160,-301 43,-69 34,-116 58,-206 80,-304 264,-283 339,-384l-251 124c0,-65 8,-25 25,-76l-44 72c-21,35 -29,52 -46,80 -22,36 -156,537 -151,586 -47,31 -18,5 -41,52 -23,46 6,10 -48,54z"/> <path class="fil5" d="M7014 8121c18,-128 41,-165 78,-254 17,-41 13,-44 35,-86 -36,14 -20,-8 -44,49 -13,31 -7,36 -17,65 -10,31 -27,43 -36,63 -27,60 -35,140 -70,195 -28,43 -41,30 -75,91 52,11 14,-21 72,22 -4,-46 -12,-41 2,-77 5,-1 13,1 15,0 23,-4 15,-3 27,-10l12 -58z"/> <path class="fil5" d="M6665 4193c36,-28 12,-145 -3,-182l-57 10c-8,25 -22,205 60,172z"/> <path class="fil5" d="M4245 8507c55,-14 -1,9 31,-11 62,-39 -6,-27 89,-64l129 -63c-57,0 -55,-11 -91,3 -8,3 -41,20 -46,22 -3,2 -6,4 -9,5l-17 11c-70,44 -131,45 -164,73 -56,46 -11,-2 -24,43 60,-13 44,-24 90,-44l12 24z"/> <path class="fil5" d="M5928 6064c38,-39 24,-42 26,-111 2,-70 9,-89 -66,-83 -1,37 -1,75 -1,112 1,67 -12,62 42,82z"/> <path class="fil5" d="M7222 8188l95 4c32,-51 20,-9 67,-47 38,-31 21,-34 46,-64l108 -113c-38,25 -51,28 -82,56 -28,25 -42,45 -73,66 -66,46 -110,44 -163,98z"/> <path class="fil5" d="M3512 9368l38 10c21,-237 -36,-173 113,-338 -75,-21 -86,31 -119,138 -24,77 -27,115 -32,190z"/> <path class="fil5" d="M6181 6391c29,-40 16,-76 16,-118 0,-76 28,-74 -35,-96 -19,45 -18,99 -18,133 0,49 -20,92 37,81z"/> <path class="fil5" d="M3700 9003c32,-133 96,-228 212,-307 -137,34 -256,198 -212,307z"/> <path class="fil5" d="M9775 5232l3 -21c0,-2 1,-7 1,-9l12 -59c-40,-23 -73,-29 -126,-21 -24,115 52,34 110,110z"/> <path class="fil5" d="M6916 4204c44,9 103,30 108,-27 6,-63 -55,-56 -111,-52l3 79z"/> <path class="fil5" d="M9234 5617c14,-18 14,24 28,-55 8,-47 5,-111 -18,-145 -48,33 -53,152 -10,200z"/> <path class="fil5" d="M11939 8327l27 50c-48,-21 -12,2 -54,-28 15,-30 -19,-31 26,-22zm0 0c-15,-39 -6,-21 -45,-40 12,-55 -4,-9 18,-50 -47,13 -19,21 -65,-4 20,45 33,27 47,53 23,40 9,23 -18,40 17,13 21,5 33,38l82 67c-4,-36 -1,-5 1,-28l1 -16c0,-2 0,-6 0,-9 5,-30 8,-41 39,-58 -10,-10 -20,-20 -34,-34 -30,-29 -1,-6 -34,-27 40,45 19,9 38,65l-64 4z"/> <path class="fil5" d="M11429 8203c3,-34 -1,-65 -5,-91 -4,-25 -9,-40 6,-75 -96,-41 1,-117 -72,-95l-16 17c51,95 18,76 46,120 -18,25 21,13 -20,21 46,20 27,9 33,57 3,27 -9,3 8,28l21 19z"/> <path class="fil5" d="M6334 8231c-73,23 -90,105 -127,181 -29,60 -98,112 -136,163 131,-33 160,-193 195,-257 28,-50 17,1 68,-86z"/> <path class="fil5" d="M6218 6912l28 -29c61,-82 67,-114 176,-72l-50 -82c-90,60 -133,64 -154,183z"/> <path class="fil5" d="M7859 7120c33,214 48,204 21,411 46,-108 53,-326 -21,-411z"/> <path class="fil5" d="M7636 5105c42,-39 25,-142 24,-146 -15,-50 4,-20 -37,-30 -19,37 -27,123 13,176z"/> <path class="fil5" d="M9512 5676c-41,36 -23,39 -30,111 -5,47 -18,61 41,53l14 -94c0,-22 2,-26 -6,-47 -9,-23 -9,-12 -19,-23z"/> <path class="fil5" d="M9421 5168c13,-81 -30,-69 -114,-57 -10,75 46,66 114,57z"/> <path class="fil5" d="M6567 5290c20,-43 6,-46 9,-91 4,-70 18,-55 -23,-83 -15,21 -20,0 -21,103 -1,93 -12,54 35,70z"/> <path class="fil5" d="M8123 5187c19,-40 16,-119 0,-162 0,0 -47,-21 -42,81 2,45 12,66 42,81z"/> <path class="fil5" d="M7047 4504l-11 49c36,11 71,21 111,-1l4 -64c-50,10 -61,-2 -104,17z"/> <path class="fil5" d="M6828 4690c-9,29 -9,56 -9,99 0,69 -11,48 25,74 13,-22 9,1 17,-46 23,-128 -10,-116 -34,-127z"/> <path class="fil5" d="M8986 5195c54,2 23,-7 33,-11l1 -77 -94 13 13 60c46,24 -5,14 46,16z"/> <path class="fil5" d="M7666 6471c12,-57 -3,-25 -15,-89 3,-4 11,-12 13,-14l12 -13c13,-21 8,7 6,-35 -53,17 -50,9 -79,72l-9 20c29,28 35,37 71,59z"/> <path class="fil5" d="M7873 5401c14,-12 27,32 27,-86 0,-59 7,-63 -39,-82 -5,55 -13,122 12,167z"/> <path class="fil5" d="M6745 4691c-4,138 -19,146 30,166 12,-30 9,-58 8,-96 -2,-64 3,-53 -38,-69z"/> <path class="fil5" d="M8665 6483c51,-106 -34,-206 -39,-52 -2,69 -17,43 39,52z"/> <path class="fil5" d="M6733 7092c-48,-70 -70,-82 -164,-113 -70,-23 -117,-52 -121,-132 6,183 30,51 285,245z"/> <path class="fil5" d="M7074 6418c12,-1 21,22 30,-31 1,-8 4,-92 -20,-104 -34,24 -42,51 -10,135z"/> <path class="fil5" d="M7053 6755c1,-1 30,22 30,-65 0,-68 1,-50 -30,-70 -7,11 -8,6 -13,29 -8,39 -4,79 13,107z"/> <path class="fil5" d="M3818 8941c-46,34 -128,162 -149,224 -17,50 -11,22 -21,48l-7 19c-3,25 5,21 9,31 11,-51 54,-175 88,-206 11,-10 25,-19 38,-33 26,-26 37,-39 42,-82z"/> <path class="fil5" d="M7860 6017c28,-4 26,48 34,-69 3,-47 17,-83 -28,-98l-6 167z"/> <path class="fil5" d="M1857 10301c8,-17 3,-21 11,-30 -45,-8 -10,14 -59,-28 50,-55 5,-2 20,-41 -51,15 -24,24 -34,56l-18 32c12,2 25,6 36,11l11 0c8,0 17,1 25,2 2,0 4,0 6,-1z"/> <path class="fil5" d="M6029 6950c63,-71 53,-176 128,-323 -31,55 -57,44 -77,147 -35,176 -21,76 -51,176z"/> <path class="fil5" d="M7451 5976c5,-29 7,-49 5,-79 -4,-66 -6,-42 -27,-55 -22,46 -31,109 22,133z"/> <path class="fil5" d="M8456 6188c25,-27 43,-123 -9,-105 -28,9 -6,-5 -12,23 -18,83 5,69 22,82z"/> <path class="fil5" d="M11763 8058c12,-10 -12,-33 57,-4 -56,-74 -55,-16 -63,-86 -39,20 -51,28 -76,68l45 -18 38 40z"/> <path class="fil5" d="M7650 5887c-23,36 -21,101 0,136 38,-28 37,-102 0,-136z"/> <path class="fil5" d="M3011 8895c2,-4 6,-18 6,-20l6 -20c-16,-18 -18,-30 -39,-41 -64,-35 65,23 -22,-4 -25,-8 -1,6 -22,-10l-27 -1 7 27c54,26 5,21 67,-3l-22 47 46 26z"/> <path class="fil5" d="M3818 8941l175 -207c-36,23 -67,50 -101,85 -26,27 -64,85 -73,122z"/> <path class="fil5" d="M7154 6017c12,-29 -5,-69 -18,-91 -33,29 -41,76 0,110 20,-20 0,26 18,-19z"/> <path class="fil5" d="M4512 7897l27 8c21,-15 47,-32 66,-53 9,4 42,17 45,18 -14,-46 -24,-49 -67,-29 -29,13 -51,37 -71,56z"/> <path class="fil5" d="M7009 7298c26,-35 35,-60 63,-102 -76,15 1,37 -115,53 7,4 23,15 30,22l12 14c1,1 5,9 5,7 1,-2 3,4 5,6z"/> <path class="fil5" d="M4494 8369c43,-10 119,-66 148,-94 29,-29 20,-30 23,-43l-41 -1 9 34 -139 105z"/> <path class="fil5" d="M7594 7910l77 -146c32,-5 4,7 4,-4l-14 -47c-26,66 -49,118 -67,197z"/> <path class="fil5" d="M8776 6194c0,0 48,-25 0,-99 -25,27 -12,-44 -23,48 -7,62 13,43 23,51z"/> <path class="fil5" d="M7621 8804c30,7 21,1 42,22 10,-26 3,-12 18,-32l27 -34c-3,-2 -7,-9 -8,-7 -1,3 -7,-5 -9,-6 -15,-9 6,0 -26,-14 -24,89 -95,39 -46,32l3 39z"/> <path class="fil5" d="M5872 6621c7,-12 10,-3 14,-30 13,-73 -21,-62 -28,-65 -19,39 -29,68 14,95z"/> <path class="fil5" d="M1857 10301l2 2c7,1 15,3 22,5 4,-14 32,9 43,18l2 1c2,-1 3,-2 5,-3 14,-21 -36,-18 23,-16 5,-3 10,-7 15,-10 -11,-11 -5,-8 3,-42 -66,39 -32,12 -47,-1 -9,15 -6,-2 -7,23 0,2 6,16 8,20 -57,-17 -16,-15 -70,3z"/> <path class="fil5" d="M8873 6190c9,-13 25,-8 18,-56 -7,-50 -15,-31 -32,-38 -21,60 -21,70 14,93z"/> <path class="fil5" d="M10012 5860c6,-10 17,3 18,-45 2,-68 -7,-28 -18,-44 -10,12 -23,-22 -24,49 -1,45 23,39 24,39z"/> <path class="fil5" d="M8470 6884c40,-14 16,-5 43,-29l85 -54c38,-24 -8,12 33,-26 -65,21 -132,47 -160,109z"/> <path class="fil5" d="M11889 8107c41,12 17,-6 26,28 44,11 13,-1 53,25 4,-43 -15,-10 14,-41l-41 -9c0,-1 2,-5 2,-6l-13 -38 -40 40z"/> <path class="fil5" d="M5846 8759c53,-14 6,5 45,-24 16,-12 13,-10 32,-23l70 -66c-53,17 -9,-4 -54,27 -38,25 -73,49 -93,86z"/> <path class="fil5" d="M7525 6194c7,-10 11,-7 17,-32l-17 -98c-15,24 -22,34 -21,63 3,54 18,62 21,67z"/> <path class="fil5" d="M7832 8803l44 -69 -107 43c-4,2 -10,4 -15,5 -15,-37 -21,-31 4,-66l-24 45c41,44 27,34 70,18 7,11 18,14 28,23z"/> <path class="fil5" d="M2748 9671l26 1 -1 -27 28 1c-9,-30 10,-7 -11,-28l-15 -9c-60,-16 20,-17 -45,12 12,31 8,21 20,51z"/> <path class="fil5" d="M7095 8563c33,-62 7,-58 61,-118 46,-51 27,-59 64,-117l-21 21c-61,69 -76,129 -104,215z"/> <path class="fil5" d="M6472 4731c6,-17 13,-21 9,-54 -4,-33 0,-18 -21,-35 0,1 -55,38 12,89z"/> <path class="fil5" d="M6353 4488c47,-9 24,-59 7,-87 -14,18 -16,-30 -18,40 -1,41 1,17 11,47z"/> <path class="fil5" d="M12263 8305l0 -51c-46,-43 -9,-12 -42,-23l-1 60c15,4 6,-6 42,14z"/> <path class="fil5" d="M9174 4598c-6,-32 -22,-28 -26,-31 -42,78 16,72 16,72 2,-5 18,5 9,-42z"/> <path class="fil5" d="M10269 6100c15,-126 -125,13 0,0z"/> <path class="fil5" d="M10399 8577c23,12 29,11 44,12 12,-1 25,-2 37,-2 -26,-53 -56,-43 -81,-10z"/> <path class="fil5" d="M4079 8578c-43,24 -51,10 -87,37 -10,7 -52,53 -56,57 40,-32 34,-9 76,-38 34,-24 26,-34 67,-57z"/> <path class="fil5" d="M6372 6730l20 -26c-6,-29 -11,-41 -17,-60l-16 -39c-17,44 9,64 13,125z"/> <path class="fil5" d="M4245 8507c-28,7 -33,8 -56,27 -32,25 -29,24 -39,68l95 -95z"/> <path class="fil5" d="M7136 7143c-13,-32 15,-55 29,-107 -18,15 -30,14 -43,58 -28,90 4,43 14,49z"/> <path class="fil5" d="M6277 7344c41,31 37,15 88,32 32,11 59,19 87,34 -82,-81 -69,-28 -175,-66z"/> <path class="fil5" d="M10415 6079c20,35 4,43 54,19 -8,-25 14,-19 -16,-31 -47,-18 -37,11 -37,11z"/> <path class="fil5" d="M9149 8426l-26 -3c10,11 9,21 21,30l-13 42c25,-11 10,-3 32,-7 27,-5 8,7 29,-10 -22,-14 -29,-7 -43,-51z"/> <path class="fil5" d="M9103 4543c8,-35 25,14 4,-43 -20,-56 -3,-13 -31,-31 0,84 16,64 27,75z"/> <path class="fil5" d="M4139 9774c50,39 -17,42 69,17l18 36c5,-1 10,-1 14,-2 2,-14 -7,1 -9,-20 -1,-8 -5,-9 -7,-14l44 9c1,-1 3,-1 4,-1 -23,-22 -7,-19 -45,-16 -4,0 -15,3 -19,3 -34,4 -34,11 -70,-13z"/> <path class="fil5" d="M11732 8383c30,16 8,7 39,8 37,1 3,-23 46,10l-21 -38c-65,-2 -41,-6 -64,20z"/> <path class="fil5" d="M10637 6121c19,-26 19,33 14,-28 -5,-54 4,-2 -14,-27 -50,23 -38,35 0,55z"/> <path class="fil5" d="M7888 8730c3,-2 8,-9 9,-6 1,2 7,-5 8,-6l55 -54c-50,12 -38,22 -67,-2 0,5 3,25 3,28 -2,29 3,2 -8,40z"/> <path class="fil5" d="M5342 7260l-106 60c-13,13 -10,12 -22,25 59,-15 54,-29 128,-85z"/> <path class="fil5" d="M11704 8133c23,47 8,5 20,55 7,25 -3,9 10,39l23 -45c-19,-16 -33,-30 -53,-48z"/> <path class="fil5" d="M7219 8327c32,-30 26,-30 35,-75 -20,11 -20,-33 -35,75z"/> <path class="fil5" d="M7321 4729c23,-25 4,-10 42,-33l-81 -1 38 34z"/> <path class="fil5" d="M11582 8117c-19,32 13,11 -21,30 29,14 26,-14 55,6 -8,-25 -7,-20 -34,-36z"/> <path class="fil5" d="M1467 10255c2,58 38,-8 44,-25l-44 25z"/> <path class="fil5" d="M9098 8537c-4,-1 -8,-3 -14,-6l8 8c2,-1 4,-1 7,-2z"/> <path class="fil5" d="M3993 8733c37,-15 35,-8 60,-45 -31,13 -39,15 -60,45z"/> <path class="fil5" d="M10034 8549l21 1 1 -26 -30 4 0 20c3,0 5,1 8,1z"/> <path class="fil5" d="M10083 8564c1,-2 2,-3 4,-5l-32 -10 0 5c8,2 15,5 22,9 2,0 4,1 6,1z"/> <path class="fil5" d="M11582 8117c-23,-38 -7,-5 -13,-39 -21,-6 -16,7 -28,-9 15,43 10,29 41,49z"/> <path class="fil5" d="M11675 8231c49,12 13,-18 52,30l-33 -50c-25,-5 -16,-8 -18,20z"/> <path class="fil5" d="M7880 7616c12,-30 -9,-25 -8,-27l-16 49c0,-4 9,-5 11,-7 1,-2 7,-5 9,-7 1,-2 4,-6 5,-8z"/> <path class="fil5" d="M7389 5178c5,3 32,-6 1,-51 -3,81 -16,15 -1,51z"/> <path class="fil5" d="M2121 10254c-36,5 -21,-6 -26,17l22 0c0,-3 1,-8 4,-17z"/> <path class="fil5" d="M8965 5283l-1 41 31 -9c-22,-19 -24,-17 -29,-32z"/> <path class="fil5" d="M7254 6058c-5,-1 -19,-3 -22,-3 -22,2 -16,4 -27,10 39,16 6,17 48,-7z"/> <path class="fil5" d="M10633 6569c-43,5 -31,-2 -24,34l24 -34z"/> <path class="fil5" d="M8046 8744c5,15 10,23 13,27 2,-2 5,-4 7,-5 0,-5 -1,-12 -4,-19 -11,-23 -17,-5 -16,-2z"/> <path class="fil5" d="M9871 5303l27 -19 -46 -20c41,28 11,-2 18,39z"/> <path class="fil5" d="M8012 8697c23,-17 10,4 25,-30 -55,37 -23,15 -56,-4 13,20 18,24 31,34z"/> <path class="fil5" d="M3751 9924c0,3 0,5 0,7 4,0 8,0 13,-1 0,0 1,0 1,0l6 -3c10,-42 -19,-6 -19,-3z"/> <path class="fil5" d="M8604 8529l26 18c1,-2 -4,-12 -3,-14 5,-19 -2,-5 13,-28 -8,6 -36,24 -36,24z"/> <path class="fil5" d="M2023 10229c15,37 -15,14 31,25 -21,-41 6,-10 -31,-25z"/> <path class="fil5" d="M10146 6528c-68,-7 -15,-8 -36,13 29,3 14,6 36,-13z"/> <path class="fil5" d="M9865 8448c-24,-37 -26,-39 -55,-46l55 46z"/> <path class="fil5" d="M12010 8202c10,38 -3,16 16,29 15,-31 21,-9 -16,-29z"/> <polygon class="fil5" points="11569,8078 11606,8081 11575,8057 "/> <path class="fil5" d="M11675 8231c-29,14 -23,-9 -13,25 18,-13 20,22 13,-25z"/> <path class="fil5" d="M11846 8160c-39,-10 -8,19 -39,-20 7,20 4,15 28,38l11 -18z"/> <path class="fil5" d="M2243 9768l1 -24 -25 6c27,32 -10,11 23,17z"/> <path class="fil5" d="M2362 9649c-5,4 1,20 17,14 21,-8 -7,-22 -17,-14z"/> <polygon class="fil5" points="11891,8131 11889,8107 11860,8118 "/> <path class="fil5" d="M5754 7043c8,-13 51,-50 69,-69 -30,19 -52,37 -69,69z"/> <path class="fil5" d="M1441 10340c9,5 -19,31 26,0 -2,-2 -6,-5 -6,-5 -59,-18 2,-10 -20,5z"/> <path class="fil5" d="M12010 8202c-16,-19 -22,-22 -42,-42 18,35 -1,21 42,42z"/> <polygon class="fil5" points="2390,9577 2386,9550 2360,9550 "/> <path class="fil5" d="M8542 8616c0,-2 0,-6 3,-11l-20 -14 2 25c3,0 7,0 10,0l5 0z"/> <path class="fil5" d="M11707 8120c28,-5 18,-1 32,-12 -24,-14 -20,16 -24,-15l-8 27z"/> <path class="fil5" d="M7385 4095c7,-11 38,26 2,-26 -14,22 -10,2 -2,26z"/> <path class="fil5" d="M9742 5963c-31,-22 -9,-37 -4,-54 -12,7 -20,23 -26,32l29 22z"/> <polygon class="fil5" points="8816,8494 8791,8471 8793,8499 "/> <path class="fil5" d="M5171 9622c-1,-5 -8,-1 -12,4 4,-2 8,-3 12,-4z"/> <path class="fil5" d="M7389 8928c11,13 -30,11 31,31l-31 -31z"/> <path class="fil5" d="M8900 5314c0,0 16,4 22,-35 -16,13 -13,9 -22,35z"/> <polygon class="fil5" points="11915,8135 11891,8131 11906,8158 "/> <path class="fil5" d="M11847 8232c-19,-23 18,-15 -24,-20 8,36 -9,10 24,20z"/> <path class="fil5" d="M3188 9840c19,38 -15,15 34,24 -15,-14 -20,-14 -34,-24z"/> <path class="fil5" d="M12047 8284c-30,-43 -7,-18 -37,-17l37 17z"/> <path class="fil5" d="M8170 8674c0,6 28,22 17,0 0,-1 -19,-25 -17,0z"/> <path class="fil5" d="M7621 8804c-29,9 -16,-7 -24,20 31,-8 10,12 24,-20z"/> <polygon class="fil5" points="2774,9937 2796,9927 2775,9912 "/> <path class="fil5" d="M12058 8314c-1,2 10,15 17,1 12,-22 -14,-12 -17,-1z"/> <path class="fil5" d="M2921 9341c0,13 15,38 11,3 -3,-21 -11,-17 -11,-3z"/> <path class="fil5" d="M11846 8160c28,-12 22,9 10,-28l-10 28z"/> <path class="fil5" d="M1882 10203l-28 7c28,14 6,26 28,-7z"/> <path class="fil5" d="M2842 9063l11 24c17,-20 17,-11 -11,-24z"/> <path class="fil5" d="M5676 9356l29 -21c-34,3 -16,-10 -29,21z"/> <path class="fil5" d="M7857 8827c14,25 5,25 25,9l-25 -9z"/> <path class="fil5" d="M5327 7137c-12,21 -18,27 -18,58l18 -58z"/> <path class="fil5" d="M9825 8455c23,26 -52,-1 23,27l-23 -27z"/> <path class="fil5" d="M1926 10254l26 -24c-38,10 -14,-12 -26,24z"/> <path class="fil5" d="M10124 7085c-14,2 -13,16 -8,14 0,0 39,-18 8,-14z"/> <polygon class="fil5" points="9775,5232 9797,5254 9800,5241 "/> <path class="fil5" d="M8524 8591l-20 -28c5,32 -6,15 20,28z"/> <path class="fil5" d="M9871 5303c-21,15 -16,11 -6,27l6 -27z"/> <path class="fil5" d="M7443 8881c-20,18 -21,10 -22,35l22 -35z"/> <path class="fil5" d="M2843 9284c30,-9 18,6 24,-22l-24 22z"/> <path class="fil5" d="M1924 9577l26 -14c-13,-7 -7,-14 -26,14z"/> <path class="fil5" d="M4586 9719c-1,-3 -4,-1 -6,1l6 -1z"/> <path class="fil5" d="M8672 8508c0,4 18,20 13,0 -5,-17 -13,-3 -13,0z"/> <path class="fil5" d="M3188 9840c-10,-32 10,-17 -22,-18l22 18z"/> <path class="fil5" d="M7712 7675c-9,26 4,10 10,1 11,-16 -9,-4 -10,-1z"/> <path class="fil5" d="M11858 7900c-23,23 -14,8 -25,43l25 -43z"/> <path class="fil5" d="M1973 9455c12,23 1,20 22,8l-22 -8z"/> <path class="fil5" d="M5676 9356c-27,18 -15,16 -7,20l7 -20z"/> <path class="fil5" d="M4302 9743l24 20c-8,-23 2,-10 -24,-20z"/> <path class="fil5" d="M6225 5794c31,-7 23,-4 29,-28 -9,20 -7,16 -29,28z"/> <path class="fil5" d="M7268 6363c-3,3 14,7 14,7 14,-4 -8,-14 -14,-7z"/> <path class="fil5" d="M3991 9818l6 18c0,0 31,33 -6,-18z"/> <path class="fil5" d="M7385 4095c-33,6 -9,-12 -25,13l25 -13z"/> <path class="fil5" d="M3296 9860c1,-2 3,-6 4,-5 1,4 -7,10 10,-10 18,-20 11,-6 19,-27l-33 42z"/> <polygon class="fil5" points="4052,8688 4085,8664 4080,8666 "/> <path class="fil5" d="M5155 9535c4,23 -27,3 10,3 0,0 3,0 3,0l-13 -2z"/> <polygon class="fil5" points="4079,8578 4106,8559 "/> <polygon class="fil5" points="11704,8133 11707,8120 "/> <polygon class="fil5" points="7539,7967 7594,7910 "/> <polygon class="fil5" points="7458,4057 7428,4016 "/> <polygon class="fil5" points="7546,8868 7528,8904 "/> <polygon class="fil5" points="7285,7571 7270,7608 "/> <polygon class="fil5" points="6879,7321 6876,7353 "/> <polygon class="fil5" points="7857,8827 7832,8803 "/> <polygon class="fil5" points="10851,6419 10820,6388 "/> <polygon class="fil5" points="2840,9181 2870,9164 "/> </g> <path class="fil4" d="M11419 6069c-32,44 -52,92 -58,144"/> <path class="fil2" d="M11392 6218c39,27 54,11 38,120l-30 -75c-46,31 -53,28 -49,103 91,-30 -10,18 94,5 15,22 22,32 40,57 20,-46 -19,-213 -29,-313 -43,-22 -29,7 -38,-46 -16,22 -29,45 -39,69l22 -36c2,3 5,8 6,10 1,3 4,8 5,11 9,26 16,61 -3,85l-17 9z"/> <path class="fil4" d="M8029 6476c67,-25 145,-59 234,-102"/> <path class="fil1" d="M8088 6432c70,-18 39,-2 38,5 1,0 2,-1 3,-1 36,-45 68,-42 93,-42 13,-6 27,-13 41,-20 11,-21 18,-64 18,-153l-5 -131c-23,9 -32,11 -56,28 -24,-22 -87,-95 -129,-115 24,-74 0,-62 5,-130 4,-51 13,-8 9,-68l5 -239c1,-75 -18,-76 -44,-124 23,-35 40,-42 66,-74 24,-29 27,-46 46,-76 84,-6 72,48 144,89 -5,-66 -16,-88 -12,-133 10,-103 30,-322 -19,-402 -84,1 -25,29 -88,16 15,-44 28,35 13,-54 -131,-48 -432,-50 -577,-27 -49,8 -118,24 -143,69 -3,7 -17,544 -17,589 20,11 19,9 31,32 -24,20 -27,7 -29,56 82,47 -22,-96 160,106 42,47 104,84 130,144 -39,71 -42,37 -36,153 11,251 -36,390 119,419l18 53c35,14 40,26 59,52 29,39 16,35 38,71 24,-11 43,-28 59,-45 19,-20 36,-39 59,-45zm-194 -483c-8,116 -5,64 -34,69l6 -167c45,15 31,51 28,98zm6 -633c0,117 -13,74 -27,86 -25,-45 -18,-112 -12,-167 47,19 39,22 39,82zm223 -129c-30,-14 -40,-36 -42,-81 -5,-102 42,-81 42,-81 16,42 19,122 0,162zm-463 -228c1,4 17,107 -24,146 -40,-53 -32,-139 -13,-176 42,11 22,-19 37,30z"/> <path class="fil4" d="M7615 4080c-1,123 9,224 32,302"/> <path class="fil1" d="M7584 4330c-1,-63 -14,-211 32,-231 0,-6 0,-13 0,-19l-10 11c-61,-154 -73,-103 -213,-139 -172,-45 -495,-5 -673,7 -72,5 -170,-2 -251,37 -3,1 -7,4 -9,5l-16 11c-21,112 -22,130 23,209 66,116 120,206 194,108l110 -4c50,37 10,26 60,47 50,5 52,-78 153,-56 41,22 25,24 56,52 89,-17 3,-46 165,-49l55 54c35,-22 31,-28 71,-44l-25 -51c20,-23 32,-35 64,-47 -45,-24 -34,1 -28,-23 9,-36 32,-12 37,-10 53,26 -10,-15 72,90 -16,67 13,30 -28,47 51,57 41,41 120,11 3,-1 7,-2 10,-3l21 -8c2,-1 7,-3 10,-5zm-199 -235c-9,-24 -12,-4 2,-26 37,52 6,15 -2,26zm-19 0c0,0 0,-1 0,0zm-6 13c6,-9 6,-12 6,-13 1,1 4,3 19,0l-25 13zm-336 69c-5,58 -64,36 -108,27l-3 -79c56,-5 117,-11 111,52zm-362 -166c15,37 38,154 3,182 -82,33 -68,-147 -60,-172l57 -10z"/> <path class="fil4" d="M6608 6063c-7,-48 0,0 21,143"/> <path class="fil2" d="M6608 6063c-45,48 -27,-19 -66,83l78 -1c-14,-94 -18,-121 -12,-81z"/> <path class="fil4" d="M7700 6308c-51,8 -85,39 -101,94 -69,18 -118,53 -146,105 -106,-18 -167,-6 -182,37"/> <path class="fil2" d="M7408 6644c8,-30 -17,-53 -28,-93 3,-1 8,-3 10,-4l18 -4c26,-6 -15,19 23,-5 17,-11 17,-16 22,-31 -33,-6 -62,-8 -86,-8 3,13 6,24 9,32l-71 -22c-18,7 -29,19 -35,34 6,-7 13,-13 19,-18 40,63 -20,36 52,99 -2,2 -5,4 -6,5 -29,44 -8,71 10,91l22 -23c54,-62 22,19 41,-54z"/> <path class="fil2" d="M7571 6438c1,0 3,-1 4,-1 -2,2 -3,2 -4,1zm-3 1c2,-8 2,-3 3,-1 -1,0 -2,1 -3,1zm-27 172c-38,124 6,-7 -15,107 37,-13 22,-11 69,-15 34,48 40,69 39,126 26,-18 14,-5 36,-36 70,-97 63,-46 64,-131 -19,-12 -6,-4 -24,-10 -8,-3 -5,24 -12,-2 0,0 -49,-82 -31,-178 -36,-22 -42,-31 -71,-59l4 -10c-65,17 -112,49 -141,96 25,21 30,22 74,21 -34,-46 13,-72 36,-80 -1,4 -3,11 -5,24l14 103c-16,12 11,28 -36,-1 11,42 11,12 1,46z"/> <path class="fil2" d="M7666 6471l110 220c20,-11 36,-24 51,-34 -13,-63 -7,-46 1,-109l-91 -93 9 -85c-32,-30 -19,-23 -62,-40 7,-11 12,-18 16,-22 -25,4 -46,13 -62,28 9,-6 21,-8 44,-15 2,42 7,14 -6,35l-12 13c-2,2 -10,10 -13,14 12,64 26,32 15,89z"/> </g> </svg>